<svg width="125" height="32" viewBox="0 0 125 32" fill="none" xmlns="http://www.w3.org/2000/svg">
<path d="M42.5727 24.836C43.835 25.4583 45.3462 25.7694 47.1064 25.7694C48.9554 25.7694 50.5467 25.4227 51.8801 24.7293C53.2136 24.0359 54.2625 23.1114 55.027 21.9558C55.7915 20.8001 56.2627 19.5289 56.4405 18.1421H52.6268C52.4135 19.44 51.8001 20.4534 50.7867 21.1824C49.791 21.8935 48.5643 22.2491 47.1064 22.2491C46.1107 22.2491 45.2307 22.0802 44.4662 21.7424C43.7194 21.4046 43.0883 20.9335 42.5727 20.329C42.0571 19.7067 41.6659 18.9866 41.3992 18.1688C41.1503 17.3509 41.0259 16.462 41.0259 15.5019C41.0259 14.5063 41.1503 13.5995 41.3992 12.7817C41.6659 11.9638 42.0482 11.2527 42.546 10.6482C43.0438 10.0437 43.6661 9.58141 44.4128 9.26138C45.1595 8.92357 46.013 8.75467 46.973 8.75467C47.9153 8.75467 48.7598 8.91468 49.5066 9.23471C50.2533 9.53696 50.8667 9.99922 51.3467 10.6215C51.8445 11.226 52.1646 11.9727 52.3068 12.8617H56.1205C55.9604 11.3327 55.4893 9.99922 54.707 8.86135C53.9247 7.70569 52.8757 6.81673 51.5601 6.19446C50.2622 5.5544 48.7332 5.23438 46.973 5.23438C45.284 5.23438 43.8172 5.52773 42.5727 6.11445C41.3459 6.68338 40.3325 7.44789 39.5324 8.40797C38.7323 9.36805 38.1367 10.4348 37.7456 11.6082C37.3722 12.7817 37.1855 13.9729 37.1855 15.1819V15.7686C37.1855 16.8531 37.3722 17.9821 37.7456 19.1555C38.119 20.329 38.6968 21.4135 39.4791 22.4091C40.2791 23.4048 41.3103 24.2137 42.5727 24.836Z" fill="#181818"/>
<path fill-rule="evenodd" clip-rule="evenodd" d="M66.3301 23.5026C66.5133 23.1918 66.6645 22.8489 66.7834 22.4739V25.2627H69.717V16.2753C69.717 14.9241 69.4592 13.8307 68.9436 12.995C68.4458 12.1594 67.6991 11.546 66.7034 11.1549C65.7256 10.7637 64.4899 10.5682 62.9965 10.5682C62.5164 10.5682 62.0008 10.577 61.4497 10.5948C60.9163 10.5948 60.3918 10.6126 59.8762 10.6482C59.3606 10.6837 58.8983 10.7193 58.4894 10.7548V13.9018C58.9872 13.8662 59.5473 13.8395 60.1696 13.8218C60.8096 13.7862 61.4408 13.7595 62.063 13.7418C62.6853 13.724 63.2187 13.7151 63.6632 13.7151C64.5166 13.7151 65.1477 13.9195 65.5567 14.3285C65.9656 14.7374 66.1701 15.3597 66.1701 16.1953V16.3286H63.2098C61.9297 16.3286 60.8096 16.4975 59.8495 16.8353C58.9072 17.1732 58.1694 17.6799 57.636 18.3555C57.1204 19.0311 56.8626 19.9023 56.8626 20.969C56.8626 21.9469 57.076 22.7825 57.5027 23.4759C57.9471 24.1693 58.5605 24.7027 59.3428 25.076C60.1429 25.4494 61.0674 25.6361 62.1164 25.6361C63.1298 25.6361 63.9832 25.4583 64.6766 25.1027C65.3878 24.7293 65.9389 24.196 66.3301 23.5026ZM65.6633 21.7691C65.9656 21.3068 66.1345 20.6846 66.1701 19.9023V18.5422H63.1565C62.3031 18.5422 61.6452 18.7555 61.183 19.1822C60.7385 19.5911 60.5162 20.1245 60.5162 20.7823C60.5162 21.4402 60.7385 21.9736 61.183 22.3825C61.6452 22.7914 62.3031 22.9959 63.1565 22.9959C63.6721 22.9959 64.1432 22.907 64.5699 22.7292C65.0144 22.5336 65.3789 22.2136 65.6633 21.7691Z" fill="#181818"/>
<path d="M78.7815 25.7694C77.5192 25.7694 76.4258 25.5561 75.5012 25.1294C74.5945 24.7027 73.83 24.1337 73.2077 23.4226C72.6032 22.7114 72.1499 21.9113 71.8476 21.0224C71.5454 20.1334 71.3942 19.2267 71.3942 18.3021V17.7954C71.3942 16.8176 71.5454 15.8842 71.8476 14.9952C72.1676 14.0884 72.6388 13.2884 73.2611 12.595C73.8833 11.8838 74.6478 11.3238 75.5546 10.9148C76.4791 10.4881 77.5459 10.2748 78.7549 10.2748C80.0172 10.2748 81.1462 10.5237 82.1418 11.0215C83.1374 11.5016 83.9286 12.1772 84.5153 13.0484C85.1198 13.9195 85.4576 14.933 85.5288 16.0886H81.9285C81.8396 15.3419 81.5195 14.7196 80.9684 14.2218C80.435 13.724 79.6972 13.4751 78.7549 13.4751C77.937 13.4751 77.2525 13.6706 76.7013 14.0618C76.168 14.4529 75.7679 14.9952 75.5012 15.6886C75.2346 16.3642 75.1012 17.1465 75.1012 18.0354C75.1012 18.8889 75.2257 19.6622 75.4746 20.3556C75.7413 21.049 76.1413 21.5913 76.6747 21.9824C77.2258 22.3736 77.9281 22.5692 78.7815 22.5692C79.4216 22.5692 79.9727 22.4536 80.435 22.2225C80.8973 21.9913 81.2617 21.6713 81.5284 21.2624C81.8129 20.8535 81.9907 20.3912 82.0618 19.8756H85.6621C85.591 21.049 85.2443 22.0802 84.622 22.9692C84.0175 23.8404 83.2086 24.5249 82.1951 25.0227C81.1995 25.5205 80.0616 25.7694 78.7815 25.7694Z" fill="#181818"/>
<path d="M90.2852 24.9427C91.1564 25.2805 92.2587 25.4494 93.5921 25.4494H95.6723V22.2758H93.4055C92.6943 22.2758 92.1431 22.0891 91.752 21.7158C91.3786 21.3246 91.1919 20.7735 91.1919 20.0623L91.205 13.5017H95.6723V10.7815H91.2105L91.2186 6.70116H87.7516L87.7434 10.7815H85.4314V13.5017H87.7378L87.725 19.8223C87.725 21.2268 87.9383 22.3469 88.365 23.1825C88.7917 24.0004 89.4318 24.5871 90.2852 24.9427Z" fill="#181818"/>
<path d="M102.384 25.7161C100.713 25.7161 99.4148 25.1649 98.4902 24.0626C97.5835 22.9603 97.1301 21.3246 97.1301 19.1555V10.7548H100.837V19.4756C100.837 20.3645 101.086 21.0757 101.584 21.6091C102.082 22.1247 102.757 22.3825 103.611 22.3825C104.464 22.3825 105.157 22.1069 105.691 21.5557C106.242 21.0046 106.518 20.2579 106.518 19.3156V10.7548H110.225V25.2627H107.291V21.8905C107.216 22.1972 107.127 22.4857 107.024 22.7558C106.651 23.7337 106.091 24.4715 105.344 24.9694C104.597 25.4672 103.664 25.7161 102.544 25.7161H102.384Z" fill="#181818"/>
<path d="M113.709 24.4627C114.847 25.2983 116.412 25.7161 118.403 25.7161C119.683 25.7161 120.794 25.5205 121.737 25.1294C122.679 24.7382 123.408 24.196 123.924 23.5026C124.457 22.7914 124.724 21.9558 124.724 20.9957C124.724 19.6978 124.235 18.6666 123.257 17.9021C122.297 17.1376 120.963 16.6664 119.257 16.4886L117.976 16.3553C117.194 16.2664 116.625 16.0975 116.27 15.8486C115.932 15.5997 115.763 15.2441 115.763 14.7818C115.763 14.3018 115.976 13.9107 116.403 13.6084C116.83 13.3062 117.434 13.155 118.216 13.155C119.088 13.155 119.754 13.3328 120.217 13.6884C120.679 14.044 120.928 14.4707 120.963 14.9685H124.297C124.244 13.4573 123.666 12.3105 122.564 11.5282C121.461 10.7459 120.021 10.3548 118.243 10.3548C117.105 10.3548 116.092 10.5326 115.203 10.8882C114.332 11.226 113.647 11.7327 113.149 12.4083C112.652 13.0839 112.403 13.9195 112.403 14.9152C112.403 16.1597 112.838 17.1554 113.709 17.9021C114.581 18.6488 115.825 19.1111 117.443 19.2889L118.723 19.4222C119.683 19.5111 120.359 19.6978 120.75 19.9823C121.159 20.2667 121.363 20.649 121.363 21.129C121.363 21.6802 121.097 22.1158 120.563 22.4358C120.048 22.7558 119.345 22.9159 118.457 22.9159C117.39 22.9159 116.607 22.7114 116.11 22.3025C115.612 21.8935 115.336 21.4402 115.283 20.9424H111.949C112.003 22.4358 112.589 23.6092 113.709 24.4627Z" fill="#181818"/>
<path fill-rule="evenodd" clip-rule="evenodd" d="M16.167 0C7.33044 0 0.166992 7.16344 0.166992 16C0.166992 24.8366 7.33044 32 16.167 32C25.0035 32 32.167 24.8366 32.167 16C32.167 7.16344 25.0035 0 16.167 0ZM3.75473 16C3.75473 9.14489 9.31189 3.58773 16.167 3.58773C23.0221 3.58773 28.5793 9.14489 28.5793 16C28.5793 22.2561 23.9508 27.4312 17.9314 28.2878V25.5499L21.1172 24.3738C22.9584 23.6941 24.1812 21.9393 24.1812 19.9767V14.5858C24.1812 13.5951 23.378 12.792 22.3873 12.792C21.3966 12.792 20.5934 13.5951 20.5934 14.5858V19.9767C20.5934 20.4371 20.3066 20.8487 19.8747 21.0081L17.9314 21.7255V7.5262C17.9314 6.53548 17.1282 5.73234 16.1375 5.73234C15.1468 5.73234 14.3436 6.53548 14.3436 7.5262V15.2231L12.4583 14.5271C12.0265 14.3677 11.7396 13.9561 11.7396 13.4957V11.1718C11.7396 10.1811 10.9365 9.37794 9.94578 9.37794C8.95505 9.37794 8.15191 10.1811 8.15191 11.1718V13.4957C8.15191 15.4584 9.37468 17.2132 11.2159 17.8929L14.3436 19.0475V28.2793C8.35297 27.3974 3.75473 22.2357 3.75473 16Z" fill="#181818"/>
</svg>
