<svg width="157" height="32" viewBox="0 0 157 32" fill="none" xmlns="http://www.w3.org/2000/svg">
<path d="M68.9847 29.9152C66.6033 29.9152 64.5587 29.4943 62.8509 28.6524C61.143 27.8105 59.7479 26.716 58.6655 25.369C57.6071 24.022 56.8253 22.5547 56.3202 20.9671C55.8151 19.3796 55.5625 17.8521 55.5625 16.3848V15.591C55.5625 13.9554 55.8151 12.3438 56.3202 10.7562C56.8494 9.16862 57.6552 7.72538 58.7376 6.42646C59.8201 5.12754 61.1911 4.09322 62.8509 3.32349C64.5347 2.5297 66.5191 2.13281 68.8042 2.13281C71.1856 2.13281 73.2542 2.56579 75.0102 3.43173C76.7902 4.27362 78.2094 5.47633 79.2678 7.03984C80.3261 8.5793 80.9636 10.3833 81.18 12.452H76.0205C75.828 11.2493 75.3951 10.239 74.7215 9.42119C74.0721 8.5793 73.2422 7.95389 72.2319 7.54497C71.2217 7.112 70.0791 6.89551 68.8042 6.89551C67.5053 6.89551 66.3507 7.12403 65.3405 7.58105C64.3302 8.01403 63.4883 8.63943 62.8148 9.45727C62.1413 10.2751 61.6241 11.2373 61.2633 12.3438C60.9266 13.4502 60.7582 14.677 60.7582 16.024C60.7582 17.3229 60.9266 18.5256 61.2633 19.6321C61.6241 20.7386 62.1533 21.7128 62.8509 22.5547C63.5484 23.3725 64.4024 24.01 65.4126 24.467C66.447 24.924 67.6376 25.1525 68.9847 25.1525C70.9571 25.1525 72.6168 24.6714 73.9638 23.7093C75.3349 22.7231 76.1648 21.352 76.4534 19.596H81.613C81.3725 21.4723 80.7351 23.1921 79.7007 24.7556C78.6664 26.3192 77.2472 27.57 75.4432 28.5081C73.6391 29.4462 71.4863 29.9152 68.9847 29.9152Z" fill="#181818"/>
<path d="M83.9882 29.2297V2.89052H89.0034V29.2297H83.9882ZM81.5347 6.64295V2.89052H89.0034V6.64295H81.5347Z" fill="#181818"/>
<path d="M102.342 29.9152C100.61 29.9152 99.0828 29.6386 97.7599 29.0854C96.4369 28.5321 95.3184 27.7864 94.4043 26.8483C93.4903 25.8862 92.7927 24.8037 92.3116 23.601C91.8546 22.3983 91.6261 21.1475 91.6261 19.8486V19.0909C91.6261 17.7439 91.8666 16.469 92.3477 15.2663C92.8528 14.0396 93.5624 12.9571 94.4765 12.019C95.4146 11.0569 96.5451 10.3112 97.8681 9.782C99.1911 9.22875 100.682 8.95213 102.342 8.95213C104.002 8.95213 105.493 9.22875 106.816 9.782C108.139 10.3112 109.258 11.0569 110.172 12.019C111.11 12.9571 111.819 14.0396 112.301 15.2663C112.782 16.469 113.022 17.7439 113.022 19.0909V19.8486C113.022 21.1475 112.782 22.3983 112.301 23.601C111.843 24.8037 111.158 25.8862 110.244 26.8483C109.33 27.7864 108.211 28.5321 106.888 29.0854C105.565 29.6386 104.05 29.9152 102.342 29.9152ZM102.342 25.6216C103.569 25.6216 104.603 25.357 105.445 24.8278C106.287 24.2746 106.924 23.5409 107.357 22.6269C107.79 21.6887 108.007 20.6304 108.007 19.4517C108.007 18.249 107.778 17.1906 107.321 16.2766C106.888 15.3385 106.239 14.6048 105.373 14.0756C104.531 13.5224 103.521 13.2458 102.342 13.2458C101.164 13.2458 100.141 13.5224 99.2753 14.0756C98.4334 14.6048 97.7839 15.3385 97.3269 16.2766C96.8699 17.1906 96.6413 18.249 96.6413 19.4517C96.6413 20.6304 96.8578 21.6887 97.2908 22.6269C97.7478 23.5409 98.3973 24.2746 99.2392 24.8278C100.081 25.357 101.115 25.6216 102.342 25.6216Z" fill="#181818"/>
<path d="M122.285 29.8431C120.023 29.8431 118.268 29.0974 117.017 27.606C115.79 26.1147 115.177 23.9017 115.177 20.9671V9.60159H120.192V21.4001C120.192 22.6028 120.529 23.565 121.202 24.2866C121.876 24.9842 122.79 25.3329 123.944 25.3329C125.099 25.3329 126.037 24.9601 126.759 24.2144C127.504 23.4687 127.877 22.4585 127.877 21.1836V9.60159H132.892V29.2297H128.923V20.895H129.32C129.32 22.8674 129.068 24.5151 128.563 25.8381C128.058 27.161 127.3 28.1593 126.29 28.8328C125.279 29.5063 124.016 29.8431 122.501 29.8431H122.285Z" fill="#181818"/>
<path d="M144.968 29.8792C143.597 29.8792 142.334 29.6266 141.179 29.1214C140.025 28.6163 139.026 27.9067 138.184 26.9927C137.343 26.0786 136.693 25.0202 136.236 23.8175C135.779 22.5908 135.551 21.2678 135.551 19.8486V19.0909C135.551 17.6958 135.767 16.3848 136.2 15.1581C136.657 13.9313 137.282 12.8609 138.076 11.9469C138.894 11.0328 139.868 10.3232 140.999 9.81808C142.153 9.28889 143.428 9.0243 144.823 9.0243C146.363 9.0243 147.71 9.36105 148.864 10.0346C150.043 10.684 150.981 11.6702 151.679 12.9932C152.376 14.3162 152.761 15.9759 152.833 17.9724L151.354 16.2405V2.89052H156.369V29.2297H152.4V20.895H153.266C153.194 22.8915 152.785 24.5632 152.04 25.9102C151.294 27.2332 150.308 28.2314 149.081 28.905C147.878 29.5544 146.507 29.8792 144.968 29.8792ZM146.086 25.6577C147.072 25.6577 147.974 25.4412 148.792 25.0082C149.61 24.5512 150.26 23.9017 150.741 23.0598C151.246 22.1939 151.498 21.1836 151.498 20.029V18.5858C151.498 17.4312 151.246 16.469 150.741 15.6993C150.236 14.9055 149.574 14.3042 148.756 13.8952C147.938 13.4623 147.048 13.2458 146.086 13.2458C145.004 13.2458 144.042 13.5104 143.2 14.0396C142.382 14.5447 141.732 15.2663 141.251 16.2044C140.794 17.1425 140.566 18.237 140.566 19.4878C140.566 20.7386 140.806 21.8331 141.287 22.7712C141.768 23.6852 142.418 24.3948 143.236 24.9C144.078 25.4051 145.028 25.6577 146.086 25.6577Z" fill="#181818"/>
<path d="M36.6672 32C34.9344 32 33.8667 31.2 32.1224 30.2578C30.3781 29.3156 25.3333 25.5221 25.3333 20.8C25.3333 17.5966 24.5076 15.0057 23.1013 12.9409C21.7055 10.8919 19.8146 9.4724 17.8474 8.47031C16.8995 7.9875 15.913 7.59271 14.9307 7.26641C14.3581 7.0763 14.0258 6.46146 14.2742 5.91172C15.849 2.42552 19.356 0 23.4299 0C28.9755 0 33.4714 4.49557 33.4714 10.0414C33.4714 11.2279 33.2656 12.3664 32.8878 13.4229C34.4883 12.3443 36.4167 11.7148 38.4919 11.7148C44.0375 11.7148 48.5333 16.2104 48.5333 21.7563C48.5333 28.4325 42.6667 32 36.6672 32Z" fill="#181818"/>
<path d="M0 20.9195C0 26.2125 3.48958 30.6227 8.1125 31.5971C8.82604 31.8578 9.59635 32 10.4 32H26.0013C26.5245 32 26.7523 31.3003 26.3529 30.9622C23.6263 28.6552 21.6 25.4039 21.6 20.8C21.6 18.2703 20.9594 16.4279 20.0156 15.0427C19.0612 13.6417 17.7188 12.5945 16.1529 11.7966C14.5724 10.9917 12.8565 10.4789 11.218 10.1154C10.832 10.0667 10.4393 10.0414 10.0414 10.0414C4.49557 10.0414 0 14.9117 0 20.9195Z" fill="#181818"/>
</svg>
