<svg width="177" height="32" viewBox="0 0 177 32" fill="none" xmlns="http://www.w3.org/2000/svg">
<path d="M56.9211 28.5849C54.3875 28.5849 52.148 28.0873 50.2025 27.0919C48.2571 26.0739 46.7528 24.6375 45.6895 22.7825C44.6263 20.9275 44.0947 18.7446 44.0947 16.2336C44.0947 13.7226 44.6263 11.5396 45.6895 9.68466C46.7528 7.80707 48.2571 6.37061 50.2025 5.37526C52.148 4.35729 54.3875 3.84831 56.9211 3.84831C58.6404 3.84831 60.156 4.02928 61.468 4.39122C62.8027 4.73055 64.0243 5.27346 65.1327 6.01997V10.9402C64.1374 10.1258 62.995 9.53762 61.7056 9.17567C60.4388 8.79111 58.991 8.59883 57.3622 8.59883C55.8466 8.59883 54.478 8.91553 53.2564 9.54893C52.0575 10.1597 51.1074 11.0419 50.4061 12.1956C49.7049 13.3493 49.3542 14.6953 49.3542 16.2336C49.3542 17.7945 49.6709 19.1631 50.3043 20.3394C50.9604 21.4931 51.8765 22.3866 53.0528 23.02C54.2292 23.6534 55.5865 23.9701 57.1247 23.9701C58.5273 23.9701 59.7488 23.7213 60.7894 23.2236V18.6428H56.9551V14.8424H65.7774V26.2775C63.5379 27.8158 60.5858 28.5849 56.9211 28.5849Z" fill="#181818"/>
<path d="M66.9685 11.7885H71.9226V14.1298C72.5787 13.338 73.4948 12.7386 74.6711 12.3314C75.8475 11.9016 77.1821 11.6867 78.6752 11.6867V15.5889C77.1143 15.5889 75.7344 15.8264 74.5354 16.3015C73.3591 16.7765 72.5447 17.5004 72.0923 18.4731V28.0759H66.9685V11.7885Z" fill="#181818"/>
<path d="M88.5216 28.5849C85.3998 28.5849 82.9454 27.8384 81.1583 26.3454C79.3712 24.8298 78.4777 22.7146 78.4777 20.0001C78.4777 17.3081 79.2694 15.1817 80.8529 13.6208C82.459 12.0599 84.7438 11.2795 87.7072 11.2795C89.6527 11.2795 91.3041 11.6414 92.6613 12.3653C94.0186 13.0892 95.0479 14.0959 95.7492 15.3853C96.4504 16.6521 96.8011 18.0886 96.8011 19.6947V21.7645H83.3639C83.7258 23.8457 85.6713 24.8863 89.2002 24.8863C90.2408 24.8863 91.3154 24.7958 92.4238 24.6149C93.5323 24.4339 94.4937 24.185 95.3081 23.8683V27.4652C94.5163 27.8045 93.4983 28.0759 92.2542 28.2795C91.01 28.4831 89.7658 28.5849 88.5216 28.5849ZM91.9488 18.4392C91.8809 17.3534 91.4737 16.5164 90.7272 15.9282C89.9807 15.3174 88.9514 15.012 87.6394 15.012C86.3499 15.012 85.332 15.3174 84.5855 15.9282C83.839 16.539 83.4318 17.376 83.3639 18.4392H91.9488Z" fill="#181818"/>
<path d="M107.304 28.5849C104.182 28.5849 101.727 27.8384 99.9403 26.3454C98.1532 24.8298 97.2597 22.7146 97.2597 20.0001C97.2597 17.3081 98.0514 15.1817 99.6349 13.6208C101.241 12.0599 103.526 11.2795 106.489 11.2795C108.435 11.2795 110.086 11.6414 111.443 12.3653C112.801 13.0892 113.83 14.0959 114.531 15.3853C115.232 16.6521 115.583 18.0886 115.583 19.6947V21.7645H102.146C102.508 23.8457 104.453 24.8863 107.982 24.8863C109.023 24.8863 110.097 24.7958 111.206 24.6149C112.314 24.4339 113.276 24.185 114.09 23.8683V27.4652C113.298 27.8045 112.28 28.0759 111.036 28.2795C109.792 28.4831 108.548 28.5849 107.304 28.5849ZM110.731 18.4392C110.663 17.3534 110.256 16.5164 109.509 15.9282C108.763 15.3174 107.733 15.012 106.421 15.012C105.132 15.012 104.114 15.3174 103.368 15.9282C102.621 16.539 102.214 17.376 102.146 18.4392H110.731Z" fill="#181818"/>
<path d="M116.72 11.7885H121.674V13.7905C122.421 12.9535 123.303 12.3314 124.321 11.9242C125.362 11.4944 126.448 11.2795 127.579 11.2795C129.796 11.2795 131.447 11.8789 132.533 13.0779C133.641 14.2542 134.195 15.849 134.195 17.8623V28.0759H129.072V18.4392C129.072 16.3354 128.099 15.2835 126.154 15.2835C125.294 15.2835 124.491 15.4984 123.744 15.9282C122.998 16.3354 122.364 16.9462 121.844 17.7605V28.0759H116.72V11.7885Z" fill="#181818"/>
<path d="M138.716 9.27747C137.925 9.27747 137.257 9.01732 136.714 8.49703C136.172 7.97673 135.9 7.32071 135.9 6.52896C135.9 5.75982 136.172 5.11511 136.714 4.59482C137.257 4.0519 137.925 3.78044 138.716 3.78044C139.508 3.78044 140.176 4.0519 140.718 4.59482C141.261 5.11511 141.533 5.75982 141.533 6.52896C141.533 7.32071 141.261 7.97673 140.718 8.49703C140.176 9.01732 139.508 9.27747 138.716 9.27747ZM136.138 11.7885H141.295V28.0759H136.138V11.7885Z" fill="#181818"/>
<path d="M150.034 28.5849C148.812 28.5849 147.5 28.4492 146.098 28.1777C144.718 27.9289 143.632 27.567 142.84 27.0919V23.0879C143.745 23.6308 144.831 24.0719 146.098 24.4113C147.365 24.7506 148.541 24.9202 149.627 24.9202C150.554 24.9202 151.233 24.8411 151.663 24.6827C152.092 24.5244 152.307 24.2303 152.307 23.8005C152.307 23.4612 152.183 23.1897 151.934 22.9861C151.685 22.7599 151.301 22.5676 150.78 22.4093C150.283 22.2283 149.446 21.9681 148.269 21.6288C146.89 21.2216 145.804 20.8144 145.012 20.4073C144.243 19.9774 143.655 19.4458 143.247 18.8124C142.863 18.179 142.671 17.3647 142.671 16.3693C142.671 14.6727 143.338 13.4059 144.673 12.5689C146.03 11.7093 147.862 11.2795 150.17 11.2795C151.301 11.2795 152.466 11.4039 153.665 11.6527C154.886 11.8789 155.825 12.1843 156.481 12.5689V16.4711C155.825 16.0413 154.965 15.6907 153.902 15.4192C152.862 15.1478 151.844 15.012 150.848 15.012C149.921 15.012 149.197 15.1025 148.677 15.2835C148.179 15.4645 147.93 15.8038 147.93 16.3015C147.93 16.7313 148.168 17.0593 148.643 17.2855C149.14 17.5117 150.057 17.7945 151.391 18.1338L152.07 18.3035C153.495 18.688 154.603 19.1178 155.395 19.5929C156.187 20.0453 156.741 20.5995 157.058 21.2556C157.397 21.889 157.567 22.692 157.567 23.6648C157.567 25.1578 156.922 26.3567 155.633 27.2616C154.343 28.1438 152.477 28.5849 150.034 28.5849Z" fill="#181818"/>
<path d="M158.751 3H163.875V13.6547C164.644 12.863 165.515 12.2748 166.488 11.8903C167.461 11.4831 168.501 11.2795 169.61 11.2795C171.827 11.2795 173.478 11.8789 174.564 13.0779C175.672 14.2542 176.226 15.849 176.226 17.8623V28.0759H171.103V18.4392C171.103 16.3354 170.13 15.2835 168.184 15.2835C167.325 15.2835 166.522 15.4984 165.775 15.9282C165.029 16.3354 164.395 16.9462 163.875 17.7605V28.0759H158.751V3Z" fill="#181818"/>
<path fill-rule="evenodd" clip-rule="evenodd" d="M26.5971 7.80442C26.5971 12.1147 23.103 15.6088 18.7927 15.6088C14.4824 15.6088 10.9883 12.1147 10.9883 7.80442C10.9883 3.49416 14.4824 0 18.7927 0C23.103 0 26.5971 3.49416 26.5971 7.80442ZM0.638757 15.0417C9.14148 14.4686 16.5519 20.8345 17.2421 29.3552C17.3136 30.2382 17.3102 31.1099 17.2372 31.9642C8.73445 32.5373 1.32405 26.1713 0.63382 17.6506C0.562296 16.7677 0.565716 15.896 0.638757 15.0417ZM22.7385 31.6659C31.2592 30.9756 37.6252 23.5653 37.0521 15.0626C36.1978 14.9895 35.3261 14.9861 34.4431 15.0576C25.9225 15.7479 19.5565 23.1582 20.1296 31.6609C20.9838 31.734 21.8556 31.7374 22.7385 31.6659Z" fill="#181818"/>
</svg>
