<svg width="113" height="32" viewBox="0 0 113 32" fill="none" xmlns="http://www.w3.org/2000/svg">
<path d="M53.1512 19.313V30.6685H56.8407V18.5751C56.8407 17.0446 56.5128 15.6918 55.8568 14.5167C55.2009 13.3415 54.2991 12.4259 53.1512 11.77C52.0307 11.1141 50.7325 10.7862 49.2567 10.7862C47.7809 10.7862 46.4554 11.1278 45.2803 11.811C44.3951 12.3051 43.6572 12.9387 43.0666 13.7119V1.39844H39.3771V30.6685H43.0666V19.313C43.0666 18.3291 43.2852 17.4546 43.7225 16.6894C44.1598 15.9241 44.761 15.3229 45.5262 14.8856C46.2915 14.4483 47.166 14.2297 48.1499 14.2297C49.6257 14.2297 50.8282 14.708 51.7574 15.6645C52.6866 16.621 53.1512 17.8372 53.1512 19.313Z" fill="#181818"/>
<path d="M63.3117 30.0126C64.5962 30.7231 66.0447 31.0784 67.6571 31.0784C69.2969 31.0784 70.7317 30.7231 71.9616 30.0126C73.2187 29.2747 74.2026 28.2635 74.9132 26.979C75.6237 25.6945 75.979 24.205 75.979 22.5106V11.1961H72.2895V22.3466C72.2895 23.959 71.8796 25.2299 71.0597 26.1591C70.2398 27.061 69.1056 27.5119 67.6571 27.5119C66.7006 27.5119 65.8671 27.3069 65.1565 26.897C64.4459 26.487 63.8993 25.8994 63.5167 25.1342C63.1614 24.3417 62.9838 23.4124 62.9838 22.3466V11.1961H59.2943V22.5106C59.2943 24.205 59.6496 25.6945 60.3601 26.979C61.0707 28.2635 62.0546 29.2747 63.3117 30.0126Z" fill="#181818"/>
<path fill-rule="evenodd" clip-rule="evenodd" d="M87.893 31.0784C85.9526 31.0784 84.2035 30.6411 82.6457 29.7666C81.088 28.8647 79.8581 27.6485 78.9562 26.1181C78.0544 24.5876 77.6034 22.8522 77.6034 20.9118C77.6034 18.9987 78.0407 17.2769 78.9152 15.7465C79.8171 14.216 81.0196 13.0135 82.5228 12.139C84.0532 11.2371 85.7613 10.7862 87.6471 10.7862C89.4508 10.7862 91.0359 11.1961 92.4024 12.016C93.7962 12.8359 94.8757 13.9701 95.641 15.4185C96.4335 16.867 96.8298 18.5068 96.8298 20.3379C96.8298 20.6112 96.8162 20.9118 96.7888 21.2397C96.7615 21.5404 96.7068 21.8957 96.6248 22.3056H81.3754C81.5052 23.0639 81.7373 23.7608 82.0718 24.3963C82.6184 25.4075 83.3973 26.2001 84.4085 26.774C85.4197 27.3206 86.5812 27.5939 87.893 27.5939C88.9862 27.5939 89.9837 27.4026 90.8856 27.02C91.8148 26.6373 92.6074 26.0634 93.2633 25.2982L95.641 27.7169C94.7118 28.81 93.5639 29.6436 92.1974 30.2175C90.8583 30.7914 89.4235 31.0784 87.893 31.0784ZM82.0308 17.3043C81.7245 17.8847 81.5085 18.5269 81.3829 19.231H93.2339C93.1331 18.4251 92.9243 17.7145 92.6074 17.0993C92.1428 16.1701 91.4869 15.4595 90.6397 14.9676C89.7924 14.4483 88.7676 14.1887 87.5651 14.1887C86.3079 14.1887 85.2011 14.462 84.2445 15.0086C83.288 15.5552 82.5501 16.3204 82.0308 17.3043Z" fill="#181818"/>
<path d="M99.2129 29.4386C100.033 29.9579 100.921 30.3678 101.878 30.6685C102.861 30.9418 103.9 31.0784 104.993 31.0784C107.18 31.0784 108.915 30.5455 110.199 29.4796C111.511 28.4138 112.167 26.9653 112.167 25.1342C112.167 23.9317 111.908 22.9615 111.388 22.2236C110.896 21.4857 110.254 20.8981 109.462 20.4609C108.669 20.0236 107.835 19.682 106.961 19.436C106.086 19.1627 105.239 18.9031 104.419 18.6571C103.627 18.4111 102.984 18.1105 102.492 17.7552C102.001 17.3999 101.755 16.8943 101.755 16.2384C101.755 15.5825 102.028 15.0769 102.574 14.7216C103.148 14.339 103.968 14.1477 105.034 14.1477C106.045 14.1477 106.947 14.339 107.74 14.7216C108.56 15.1042 109.243 15.6508 109.789 16.3614L112.167 13.9837C111.402 12.9179 110.418 12.1253 109.216 11.6061C108.04 11.0595 106.688 10.7862 105.157 10.7862C103.709 10.7862 102.465 11.0185 101.427 11.4831C100.415 11.9477 99.6229 12.6172 99.049 13.4918C98.475 14.339 98.1881 15.3502 98.1881 16.5254C98.1881 17.7006 98.434 18.6434 98.926 19.354C99.4452 20.0646 100.101 20.6248 100.894 21.0348C101.686 21.4447 102.52 21.7863 103.394 22.0596C104.296 22.3056 105.143 22.5652 105.936 22.8385C106.729 23.0845 107.371 23.4124 107.863 23.8224C108.382 24.205 108.642 24.7516 108.642 25.4622C108.642 26.1727 108.327 26.733 107.699 27.1429C107.07 27.5256 106.182 27.7169 105.034 27.7169C103.886 27.7169 102.848 27.5119 101.919 27.1019C100.989 26.6647 100.169 26.0088 99.4589 25.1342L97.0812 27.5119C97.6825 28.2498 98.393 28.892 99.2129 29.4386Z" fill="#181818"/>
<path d="M108.713 4.66122V5.38772H107.839V7.59806H107.009V5.38772H106.134V4.66122H108.713Z" fill="#181818"/>
<path d="M112.122 4.61719V7.61127H111.292V6.15826L110.684 6.84073H110.435L109.827 6.15826V7.61127H108.997V4.61719H109.29L110.559 5.89407L111.829 4.61719H112.122Z" fill="#181818"/>
<path d="M3.99453 9.43401C5.14346 13.1179 9.06126 15.1729 12.7452 14.024C16.4291 12.8751 25.1544 6.87692 24.0055 3.19301C22.8565 -0.490899 12.2684 -0.46557 8.58451 0.683365C4.90059 1.8323 2.84559 5.7501 3.99453 9.43401Z" fill="#181818"/>
<path d="M1.76916 29.6338C3.93143 31.7961 7.43678 31.7961 9.59905 29.6338C11.7613 27.4715 15.6761 20.0511 13.5142 17.8888C11.3519 15.7267 3.93143 19.6416 1.76916 21.8037C-0.393106 23.966 -0.393106 27.4715 1.76916 29.6338Z" fill="#181818"/>
<path d="M22.4578 31.762C26.1852 32.7607 30.0166 30.5488 31.0155 26.8213C32.014 23.0938 31.6106 12.5135 27.8831 11.5146C24.1557 10.516 18.5161 19.477 17.5172 23.2045C16.5183 26.9318 18.7303 30.7631 22.4578 31.762Z" fill="#181818"/>
</svg>
