<svg width="105" height="32" viewBox="0 0 105 32" fill="none" xmlns="http://www.w3.org/2000/svg">
<path d="M20.4819 24.6785C20.6412 26.5808 19.9974 28.5384 18.5482 30.0005C17.099 31.4625 15.1472 32.1235 13.2435 31.981C13.0842 30.0787 13.728 28.1211 15.1772 26.6591C16.6264 25.197 18.5782 24.536 20.4819 24.6785Z" fill="#181818"/>
<path d="M17.0337 22.035C15.1339 24.0667 12.3893 25.2847 9.39278 25.1478C6.39664 25.011 3.77473 23.5482 2.06798 21.3522C3.96782 19.3205 6.71243 18.1025 9.7089 18.2394C12.705 18.3762 15.3269 19.839 17.0337 22.035Z" fill="#181818"/>
<path d="M0.951172 15.4965C1.34804 10.7392 3.74822 6.17884 7.92904 3.17495C12.1097 0.171176 17.1973 -0.6486 21.8325 0.492965C21.4356 5.25033 19.0354 9.81066 14.8546 12.8146C10.6739 15.8183 5.58638 16.6381 0.951172 15.4965Z" fill="#181818"/>
<path d="M78.0179 9.66366V12.5606H79.7562V27.7059H82.8462V12.5606H86.902V9.66366H82.8462V6.69929C82.8462 5.84945 82.9235 5.16715 83.078 4.65205C83.2325 4.13707 83.4385 3.77659 83.696 3.5705C83.9792 3.3388 84.3141 3.22295 84.7003 3.22295C85.0093 3.22295 85.3312 3.28733 85.666 3.416C86.0265 3.51904 86.3355 3.7894 86.593 4.22718L88.2925 1.67788C88.1122 1.42033 87.8548 1.1757 87.5201 0.944001C87.211 0.712184 86.8376 0.519023 86.3998 0.364516C85.9621 0.210009 85.4599 0.132812 84.8934 0.132812C83.8119 0.132812 82.8849 0.364516 82.1123 0.828036C81.3655 1.26582 80.7861 1.93532 80.3741 2.83662C79.9621 3.73793 79.7562 4.89668 79.7562 6.31297V9.66366H78.0179Z" fill="#181818"/>
<path d="M29.4922 3.75757L29.4922 27.7059H43.3977V24.6158H32.7754V3.75757H29.4922Z" fill="#181818"/>
<path fill-rule="evenodd" clip-rule="evenodd" d="M51.6326 28.0921C53.5381 28.0921 55.1862 27.7187 56.5768 26.9719C57.9931 26.1995 59.1647 25.0664 60.0918 23.5729L57.581 21.9891C56.9372 23.0707 56.1519 23.8819 55.2249 24.4226C54.2978 24.9376 53.2291 25.1951 52.0189 25.1951C50.8086 25.1951 49.7785 24.9376 48.9287 24.4226C48.079 23.9076 47.4351 23.1608 46.9975 22.1823C46.6648 21.4387 46.4585 20.576 46.3786 19.5943H60.3621V19.2467C60.3879 19.0407 60.4008 18.8475 60.4008 18.6673C60.4008 16.7875 60.0659 15.1652 59.3964 13.8004C58.7269 12.4356 57.7612 11.3927 56.4995 10.6716C55.2634 9.92492 53.7699 9.55152 52.0189 9.55152C50.2678 9.55152 48.7228 9.93773 47.3837 10.7103C46.0704 11.4828 45.0403 12.5643 44.2935 13.9549C43.5726 15.3455 43.2121 16.9677 43.2121 18.8218C43.2121 20.6502 43.5597 22.2595 44.255 23.6501C44.976 25.0406 45.9674 26.1351 47.2292 26.9334C48.5167 27.7059 49.9846 28.0921 51.6326 28.0921ZM47.036 15.191C46.7892 15.7136 46.608 16.3059 46.4921 16.9677H57.0231C56.9637 16.1215 56.7504 15.3748 56.3836 14.7274C55.9716 13.9549 55.3922 13.3498 54.6454 12.912C53.8987 12.4742 53.0231 12.2553 52.0189 12.2553C50.8343 12.2553 49.8171 12.5129 48.9674 13.0279C48.1433 13.5171 47.4995 14.2382 47.036 15.191Z" fill="#181818"/>
<path fill-rule="evenodd" clip-rule="evenodd" d="M72.9793 17.9641C72.4937 17.6456 71.8757 17.365 71.1252 17.1222C70.2755 16.8132 69.2069 16.6587 67.9192 16.6587C65.7304 16.6587 64.018 17.1866 62.782 18.2424C61.5717 19.2724 60.9666 20.6502 60.9666 22.3755C60.9666 23.5857 61.2498 24.6158 61.8163 25.4655C62.3828 26.3153 63.1296 26.9719 64.0567 27.4354C65.0095 27.8732 66.0266 28.0921 67.1082 28.0921C68.0867 28.0921 69.0652 27.9119 70.0437 27.5514C71.048 27.1908 71.8849 26.6372 72.5544 25.8905C72.7145 25.7185 72.8561 25.5363 72.9793 25.344V27.7059H76.0694V14.9591C76.0694 13.8004 75.7732 12.8219 75.1811 12.0236C74.6145 11.2254 73.8033 10.6201 72.7476 10.2082C71.7175 9.77041 70.5072 9.55152 69.1166 9.55152C67.4686 9.55152 66.0523 9.79614 64.8678 10.2854C63.709 10.7746 62.7949 11.2639 62.1253 11.7532L63.6317 14.0321C63.915 13.8261 64.3013 13.5815 64.7906 13.2982C65.2798 13.0149 65.8721 12.7703 66.5673 12.5643C67.2884 12.3584 68.0867 12.2553 68.9622 12.2553C69.503 12.2553 70.0179 12.3068 70.5072 12.4098C70.9964 12.5129 71.4214 12.6802 71.7819 12.912C72.1681 13.1437 72.4643 13.4656 72.6703 13.8776C72.8763 14.2639 72.9793 14.7661 72.9793 15.3841V17.9641ZM64.5587 20.56C64.2497 21.0236 64.0952 21.5772 64.0952 22.221C64.0952 22.8904 64.2497 23.4698 64.5587 23.9591C64.8936 24.4483 65.3442 24.8217 65.9108 25.0793C66.5029 25.311 67.1726 25.4269 67.9192 25.4269C68.872 25.4269 69.7219 25.2338 70.4687 24.8475C71.2412 24.4612 71.8463 23.9204 72.2841 23.2252C72.7476 22.5041 72.9793 21.6801 72.9793 20.7531V20.0848C72.4845 19.8441 71.9824 19.6548 71.4729 19.517C70.5201 19.2339 69.503 19.0922 68.4214 19.0922C67.4172 19.0922 66.5931 19.2209 65.9493 19.4785C65.3313 19.7359 64.8678 20.0965 64.5587 20.56Z" fill="#181818"/>
<path fill-rule="evenodd" clip-rule="evenodd" d="M100.31 26.9719C98.9199 27.7187 97.2718 28.0921 95.3662 28.0921C93.7182 28.0921 92.2504 27.7059 90.9628 26.9334C89.7011 26.1351 88.7096 25.0406 87.9887 23.6501C87.2933 22.2595 86.9458 20.6502 86.9458 18.8218C86.9458 16.9677 87.3063 15.3455 88.0272 13.9549C88.774 12.5643 89.8041 11.4828 91.1173 10.7103C92.4564 9.93773 94.0015 9.55152 95.7525 9.55152C97.5036 9.55152 98.9971 9.92492 100.233 10.6716C101.495 11.3927 102.461 12.4356 103.13 13.8004C103.8 15.1652 104.134 16.7875 104.134 18.6673C104.134 18.8475 104.122 19.0407 104.096 19.2467V19.5943H90.1123C90.1921 20.576 90.3984 21.4387 90.7311 22.1823C91.1689 23.1608 91.8127 23.9076 92.6624 24.4226C93.5121 24.9376 94.5422 25.1951 95.7525 25.1951C96.9628 25.1951 98.0315 24.9376 98.9585 24.4226C99.8856 23.8819 100.671 23.0707 101.315 21.9891L103.825 23.5729C102.898 25.0664 101.727 26.1995 100.31 26.9719ZM90.2258 16.9677C90.3416 16.3059 90.523 15.7136 90.7698 15.191C91.2332 14.2382 91.8771 13.5171 92.7011 13.0279C93.5508 12.5129 94.568 12.2553 95.7525 12.2553C96.7568 12.2553 97.6324 12.4742 98.3791 12.912C99.1259 13.3498 99.7052 13.9549 100.117 14.7274C100.484 15.3748 100.697 16.1215 100.757 16.9677H90.2258Z" fill="#181818"/>
</svg>
