<svg width="101" height="36" viewBox="0 0 101 36" fill="none" xmlns="http://www.w3.org/2000/svg">
<path d="M0.884 20.332H4.394C4.46333 20.9213 4.732 21.4587 5.2 21.944C5.68533 22.412 6.318 22.7847 7.098 23.062C7.878 23.322 8.75333 23.452 9.724 23.452C10.608 23.452 11.336 23.3567 11.908 23.166C12.48 22.9753 12.9047 22.7067 13.182 22.36C13.4593 22.0133 13.598 21.5973 13.598 21.112C13.598 20.644 13.4247 20.2887 13.078 20.046C12.7313 19.786 12.1853 19.578 11.44 19.422C10.6947 19.2487 9.71533 19.0753 8.502 18.902C7.54867 18.7633 6.64733 18.5727 5.798 18.33C4.94867 18.07 4.19467 17.7407 3.536 17.342C2.89467 16.9433 2.38333 16.458 2.002 15.886C1.638 15.2967 1.456 14.6033 1.456 13.806C1.456 12.818 1.73333 11.9513 2.288 11.206C2.86 10.4607 3.70067 9.88 4.81 9.464C5.91933 9.048 7.28 8.84 8.892 8.84C11.3187 8.84 13.182 9.36 14.482 10.4C15.7993 11.4227 16.4407 12.8353 16.406 14.638H13.026C12.9567 13.6153 12.5233 12.8787 11.726 12.428C10.946 11.9773 9.958 11.752 8.762 11.752C7.65267 11.752 6.734 11.9167 6.006 12.246C5.29533 12.5753 4.94 13.1387 4.94 13.936C4.94 14.248 5.02667 14.5253 5.2 14.768C5.37333 14.9933 5.668 15.1927 6.084 15.366C6.5 15.5393 7.06333 15.704 7.774 15.86C8.48467 16.016 9.36867 16.172 10.426 16.328C11.414 16.4667 12.3067 16.6573 13.104 16.9C13.9187 17.1253 14.612 17.4287 15.184 17.81C15.7733 18.174 16.224 18.642 16.536 19.214C16.848 19.786 17.004 20.488 17.004 21.32C17.004 22.3427 16.7353 23.2353 16.198 23.998C15.678 24.7433 14.8633 25.324 13.754 25.74C12.662 26.156 11.2407 26.364 9.49 26.364C8.242 26.364 7.14133 26.234 6.188 25.974C5.23467 25.6967 4.41133 25.3327 3.718 24.882C3.02467 24.4313 2.46133 23.9373 2.028 23.4C1.59467 22.8627 1.28267 22.3253 1.092 21.788C0.918667 21.2507 0.849333 20.7653 0.884 20.332ZM29.0247 26.312C27.8807 26.312 26.9014 26.1127 26.0867 25.714C25.2894 25.298 24.6394 24.7607 24.1367 24.102C23.6341 23.426 23.2614 22.6893 23.0187 21.892C22.7761 21.0947 22.6547 20.3147 22.6547 19.552C22.6547 18.5987 22.7674 17.7147 22.9927 16.9C23.2354 16.0853 23.6081 15.3747 24.1107 14.768C24.6134 14.144 25.2634 13.6587 26.0607 13.312C26.8754 12.9653 27.8634 12.792 29.0247 12.792C30.3247 12.792 31.4947 13.078 32.5347 13.65C33.5747 14.222 34.3981 15.0193 35.0047 16.042C35.6287 17.0473 35.9407 18.2173 35.9407 19.552C35.9407 20.9213 35.6287 22.1173 35.0047 23.14C34.3807 24.1453 33.5487 24.9253 32.5087 25.48C31.4687 26.0347 30.3074 26.312 29.0247 26.312ZM27.9327 23.686C28.8514 23.686 29.6487 23.5127 30.3247 23.166C31.0181 22.8193 31.5467 22.3427 31.9107 21.736C32.2921 21.112 32.4827 20.384 32.4827 19.552C32.4827 18.304 32.0841 17.2987 31.2867 16.536C30.5067 15.7733 29.3887 15.392 27.9327 15.392C27.0141 15.392 26.1734 15.5567 25.4107 15.886C24.6654 16.2153 24.0761 16.692 23.6427 17.316C23.2094 17.9227 22.9927 18.668 22.9927 19.552C22.9927 20.384 23.1921 21.112 23.5907 21.736C23.9894 22.3427 24.5614 22.8193 25.3067 23.166C26.0521 23.5127 26.9274 23.686 27.9327 23.686ZM19.6127 13.078H22.8367L22.9927 16.51V31.2H19.6127V13.078ZM44.7192 26.286C43.4365 26.286 42.2665 26.0087 41.2092 25.454C40.1692 24.882 39.3372 24.0933 38.7132 23.088C38.1065 22.0653 37.8032 20.8867 37.8032 19.552C37.8032 18.1827 38.1152 16.9953 38.7392 15.99C39.3632 14.9847 40.2039 14.2047 41.2612 13.65C42.3359 13.078 43.5492 12.792 44.9012 12.792C46.3919 12.792 47.5879 13.0953 48.4892 13.702C49.4079 14.2913 50.0752 15.0973 50.4912 16.12C50.9072 17.1427 51.1152 18.2867 51.1152 19.552C51.1152 20.3147 50.9939 21.0947 50.7512 21.892C50.5085 22.672 50.1359 23.4 49.6332 24.076C49.1305 24.7347 48.4719 25.272 47.6572 25.688C46.8425 26.0867 45.8632 26.286 44.7192 26.286ZM45.8112 23.686C46.8339 23.686 47.7179 23.5127 48.4632 23.166C49.2085 22.8193 49.7805 22.334 50.1792 21.71C50.5779 21.086 50.7772 20.3667 50.7772 19.552C50.7772 18.668 50.5692 17.9227 50.1532 17.316C49.7545 16.692 49.1825 16.224 48.4372 15.912C47.7092 15.5827 46.8339 15.418 45.8112 15.418C44.3725 15.418 43.2545 15.7993 42.4572 16.562C41.6599 17.3073 41.2612 18.304 41.2612 19.552C41.2612 20.384 41.4519 21.112 41.8332 21.736C42.2145 22.3427 42.7432 22.8193 43.4192 23.166C44.1125 23.5127 44.9099 23.686 45.8112 23.686ZM50.7772 13.078H54.1572V26H51.0112C51.0112 26 50.9852 25.8353 50.9332 25.506C50.8985 25.1593 50.8639 24.726 50.8292 24.206C50.7945 23.686 50.7772 23.1747 50.7772 22.672V13.078ZM57.2163 13.078H60.5963V26H57.2163V13.078ZM65.5623 15.86C64.5916 15.86 63.7509 16.0507 63.0403 16.432C62.3296 16.796 61.7576 17.2467 61.3243 17.784C60.8909 18.3213 60.5876 18.8413 60.4143 19.344L60.3883 17.914C60.4056 17.706 60.4749 17.4027 60.5963 17.004C60.7176 16.588 60.8996 16.146 61.1423 15.678C61.3849 15.1927 61.7056 14.7333 62.1043 14.3C62.5029 13.8493 62.9883 13.4853 63.5603 13.208C64.1323 12.9307 64.7996 12.792 65.5623 12.792V15.86ZM67.8858 7.878H71.2658V26H67.8858V7.878ZM82.1598 13.078L74.4638 19.864L74.5418 17.784L82.7578 26H78.4678L71.3438 18.746L77.5578 13.078H82.1598ZM84.5366 13.078H87.9166V26H84.5366V13.078ZM92.8826 15.86C91.9119 15.86 91.0712 16.0507 90.3606 16.432C89.6499 16.796 89.0779 17.2467 88.6446 17.784C88.2112 18.3213 87.9079 18.8413 87.7346 19.344L87.7086 17.914C87.7259 17.706 87.7952 17.4027 87.9166 17.004C88.0379 16.588 88.2199 16.146 88.4626 15.678C88.7052 15.1927 89.0259 14.7333 89.4246 14.3C89.8232 13.8493 90.3086 13.4853 90.8806 13.208C91.4526 12.9307 92.1199 12.792 92.8826 12.792V15.86Z" fill="#181818"/>
<path d="M98.8981 23.036V26H94.9721V23.036H98.8981Z" fill="#FF463A"/>
</svg>
