<svg width="111" height="24" viewBox="0 0 111 24" fill="none" xmlns="http://www.w3.org/2000/svg">
<path d="M11.012 18.338C8.776 18.338 6.86067 17.9913 5.266 17.298C3.68867 16.5873 2.47533 15.582 1.626 14.282C0.794 12.982 0.378 11.422 0.378 9.602C0.378 7.76467 0.794 6.196 1.626 4.896C2.47533 3.596 3.68867 2.59933 5.266 1.906C6.86067 1.19533 8.776 0.839999 11.012 0.839999C13.2653 0.839999 15.1807 1.19533 16.758 1.906C18.3353 2.59933 19.54 3.596 20.372 4.896C21.2213 6.196 21.646 7.76467 21.646 9.602C21.646 11.422 21.2213 12.982 20.372 14.282C19.54 15.582 18.3353 16.5873 16.758 17.298C15.1807 17.9913 13.2653 18.338 11.012 18.338ZM11.012 15.348C12.3987 15.348 13.612 15.14 14.652 14.724C15.7093 14.308 16.5327 13.6753 17.122 12.826C17.7287 11.9767 18.032 10.902 18.032 9.602C18.032 8.302 17.7287 7.22733 17.122 6.378C16.5327 5.52867 15.7093 4.896 14.652 4.48C13.612 4.04667 12.3987 3.83 11.012 3.83C9.64267 3.83 8.42067 4.04667 7.346 4.48C6.27133 4.896 5.43067 5.52867 4.824 6.378C4.21733 7.22733 3.914 8.302 3.914 9.602C3.914 10.902 4.21733 11.9767 4.824 12.826C5.43067 13.6753 6.27133 14.308 7.346 14.724C8.42067 15.14 9.64267 15.348 11.012 15.348ZM24.5795 5.078H27.9595V18H24.5795V5.078ZM32.9255 7.86C31.9549 7.86 31.1142 8.05067 30.4035 8.432C29.6929 8.796 29.1209 9.24667 28.6875 9.784C28.2542 10.3213 27.9509 10.8413 27.7775 11.344L27.7515 9.914C27.7689 9.706 27.8382 9.40267 27.9595 9.004C28.0809 8.588 28.2629 8.146 28.5055 7.678C28.7482 7.19267 29.0689 6.73333 29.4675 6.3C29.8662 5.84933 30.3515 5.48533 30.9235 5.208C31.4955 4.93067 32.1629 4.792 32.9255 4.792V7.86ZM41.3071 18.286C40.0244 18.286 38.8544 18.0087 37.7971 17.454C36.7571 16.882 35.9251 16.0933 35.3011 15.088C34.6944 14.0653 34.3911 12.8867 34.3911 11.552C34.3911 10.1827 34.7031 8.99533 35.3271 7.99C35.9511 6.98467 36.7917 6.20467 37.8491 5.65C38.9237 5.078 40.1371 4.792 41.4891 4.792C42.9797 4.792 44.1757 5.09533 45.0771 5.702C45.9957 6.29133 46.6631 7.09733 47.0791 8.12C47.4951 9.14267 47.7031 10.2867 47.7031 11.552C47.7031 12.3147 47.5817 13.0947 47.3391 13.892C47.0964 14.672 46.7237 15.4 46.2211 16.076C45.7184 16.7347 45.0597 17.272 44.2451 17.688C43.4304 18.0867 42.4511 18.286 41.3071 18.286ZM42.3991 15.686C43.4217 15.686 44.3057 15.5127 45.0511 15.166C45.7964 14.8193 46.3684 14.334 46.7671 13.71C47.1657 13.086 47.3651 12.3667 47.3651 11.552C47.3651 10.668 47.1571 9.92267 46.7411 9.316C46.3424 8.692 45.7704 8.224 45.0251 7.912C44.2971 7.58267 43.4217 7.418 42.3991 7.418C40.9604 7.418 39.8424 7.79933 39.0451 8.562C38.2477 9.30733 37.8491 10.304 37.8491 11.552C37.8491 12.384 38.0397 13.112 38.4211 13.736C38.8024 14.3427 39.3311 14.8193 40.0071 15.166C40.7004 15.5127 41.4977 15.686 42.3991 15.686ZM47.3651 5.078H50.7451V18H47.5991C47.5991 18 47.5731 17.8353 47.5211 17.506C47.4864 17.1593 47.4517 16.726 47.4171 16.206C47.3824 15.686 47.3651 15.1747 47.3651 14.672V5.078ZM53.8041 5.078H57.1841V18H53.8041V5.078ZM63.1901 4.792C63.9875 4.792 64.7241 4.896 65.4001 5.104C66.0761 5.312 66.6655 5.63267 67.1681 6.066C67.6708 6.49933 68.0608 7.054 68.3381 7.73C68.6155 8.38867 68.7541 9.17733 68.7541 10.096V18H65.3741V10.694C65.3741 9.602 65.1055 8.80467 64.5681 8.302C64.0481 7.782 63.1901 7.522 61.9941 7.522C61.0928 7.522 60.2781 7.69533 59.5501 8.042C58.8221 8.38867 58.2328 8.83067 57.7821 9.368C57.3315 9.888 57.0715 10.434 57.0021 11.006L56.9761 9.68C57.0628 9.07333 57.2621 8.484 57.5741 7.912C57.8861 7.34 58.3021 6.82 58.8221 6.352C59.3595 5.86667 59.9921 5.48533 60.7201 5.208C61.4481 4.93067 62.2715 4.792 63.1901 4.792ZM78.2795 16.024C76.8755 16.024 75.6362 15.816 74.5615 15.4C73.5042 14.9667 72.6808 14.334 72.0915 13.502C71.5022 12.67 71.2075 11.6647 71.2075 10.486C71.2075 9.32467 71.4935 8.31933 72.0655 7.47C72.6375 6.62067 73.4522 5.962 74.5095 5.494C75.5842 5.026 76.8408 4.792 78.2795 4.792C78.6782 4.792 79.0595 4.818 79.4235 4.87C79.8048 4.922 80.1775 4.99133 80.5415 5.078L87.0675 5.104V7.652C86.1835 7.66933 85.2822 7.56533 84.3635 7.34C83.4622 7.09733 82.6648 6.83733 81.9715 6.56L81.8935 6.378C82.4828 6.65533 83.0375 7.002 83.5575 7.418C84.0775 7.81667 84.4935 8.28467 84.8055 8.822C85.1348 9.342 85.2995 9.94867 85.2995 10.642C85.2995 11.7687 85.0135 12.7393 84.4415 13.554C83.8695 14.3513 83.0548 14.9667 81.9975 15.4C80.9575 15.816 79.7182 16.024 78.2795 16.024ZM82.6215 23.33V22.706C82.6215 21.9087 82.3615 21.354 81.8415 21.042C81.3388 20.73 80.6455 20.574 79.7615 20.574H75.7315C74.9515 20.574 74.2928 20.5133 73.7555 20.392C73.2355 20.2707 72.8195 20.0973 72.5075 19.872C72.1955 19.6467 71.9702 19.378 71.8315 19.066C71.6928 18.7713 71.6235 18.4507 71.6235 18.104C71.6235 17.4107 71.8488 16.8907 72.2995 16.544C72.7502 16.18 73.3568 15.9373 74.1195 15.816C74.8822 15.6947 75.7228 15.6687 76.6415 15.738L78.2795 16.024C77.1875 16.0587 76.3728 16.154 75.8355 16.31C75.3155 16.4487 75.0555 16.7347 75.0555 17.168C75.0555 17.428 75.1595 17.636 75.3675 17.792C75.5755 17.9307 75.8702 18 76.2515 18H80.4895C81.6508 18 82.6388 18.1213 83.4535 18.364C84.2855 18.624 84.9182 19.0487 85.3515 19.638C85.7848 20.2447 86.0015 21.068 86.0015 22.108V23.33H82.6215ZM78.2795 13.58C79.0248 13.58 79.6748 13.4587 80.2295 13.216C80.8015 12.9733 81.2435 12.6267 81.5555 12.176C81.8675 11.708 82.0235 11.1533 82.0235 10.512C82.0235 9.85333 81.8675 9.29 81.5555 8.822C81.2435 8.354 80.8102 7.99867 80.2555 7.756C79.7008 7.496 79.0422 7.366 78.2795 7.366C77.5342 7.366 76.8755 7.496 76.3035 7.756C75.7315 7.99867 75.2895 8.354 74.9775 8.822C74.6655 9.29 74.5095 9.85333 74.5095 10.512C74.5095 11.1533 74.6655 11.708 74.9775 12.176C75.2895 12.6267 75.7228 12.9733 76.2775 13.216C76.8495 13.4587 77.5168 13.58 78.2795 13.58ZM100.824 13.71H104.1C103.962 14.594 103.589 15.3827 102.982 16.076C102.393 16.7693 101.587 17.3153 100.564 17.714C99.5417 18.1127 98.2937 18.312 96.8203 18.312C95.1737 18.312 93.7177 18.052 92.4523 17.532C91.187 16.9947 90.199 16.2233 89.4883 15.218C88.7777 14.2127 88.4223 12.9993 88.4223 11.578C88.4223 10.1567 88.769 8.94333 89.4623 7.938C90.1557 6.91533 91.1177 6.13533 92.3483 5.598C93.5963 5.06067 95.0523 4.792 96.7163 4.792C98.415 4.792 99.8277 5.06067 100.954 5.598C102.081 6.13533 102.913 6.95 103.45 8.042C104.005 9.11667 104.239 10.4947 104.152 12.176H91.8283C91.915 12.8347 92.1577 13.4327 92.5563 13.97C92.9723 14.5073 93.527 14.932 94.2203 15.244C94.931 15.556 95.7717 15.712 96.7423 15.712C97.817 15.712 98.7097 15.53 99.4203 15.166C100.148 14.7847 100.616 14.2993 100.824 13.71ZM96.5603 7.366C95.3123 7.366 94.2983 7.64333 93.5183 8.198C92.7383 8.73533 92.2357 9.40267 92.0103 10.2H100.798C100.712 9.33333 100.296 8.64867 99.5503 8.146C98.8223 7.626 97.8257 7.366 96.5603 7.366Z" fill="white"/>
<path d="M110.593 15.036V18H106.667V15.036H110.593Z" fill="#FF463A"/>
</svg>
