<svg width="122" height="32" viewBox="0 0 122 32" fill="none" xmlns="http://www.w3.org/2000/svg">
<path fill-rule="evenodd" clip-rule="evenodd" d="M24.2357 5.62343H10.9805V0H29.8591V18.8787H24.2357V5.62343Z" fill="#181818"/>
<path fill-rule="evenodd" clip-rule="evenodd" d="M13.881 16.816C13.0223 16.2422 12.0127 15.9359 10.98 15.9359V10.3125C13.1249 10.3125 15.2217 10.9486 17.0052 12.1402C18.7887 13.3319 20.1788 15.0257 20.9996 17.0074C21.8204 18.9891 22.0352 21.1697 21.6168 23.2735C21.1983 25.3772 20.1654 27.3097 18.6487 28.8264C17.1319 30.3431 15.1995 31.376 13.0957 31.7945C10.992 32.213 8.81136 31.9982 6.82966 31.1773C4.84797 30.3565 3.15418 28.9664 1.9625 27.1829C0.770817 25.3994 0.134762 23.3026 0.134766 21.1577L5.7582 21.1577C5.75819 22.1904 6.06444 23.2 6.63822 24.0587C7.21199 24.9174 8.02751 25.5867 8.98167 25.982C9.93582 26.3772 10.9857 26.4806 11.9987 26.2791C13.0116 26.0776 13.942 25.5803 14.6723 24.85C15.4026 24.1198 15.8999 23.1893 16.1014 22.1764C16.3029 21.1635 16.1994 20.1136 15.8042 19.1594C15.409 18.2053 14.7397 17.3897 13.881 16.816Z" fill="#181818"/>
<path d="M38.6953 27.5933V4H47.4248C49.3123 4 50.8739 4.31458 52.1098 4.94373C53.3456 5.57288 54.2669 6.43797 54.8736 7.53899C55.4802 8.64001 55.7836 9.87585 55.7836 11.2465C55.7836 12.5497 55.4915 13.7519 54.9073 14.8529C54.323 15.9314 53.413 16.8078 52.1772 17.4819C50.9413 18.1335 49.3572 18.4593 47.4248 18.4593H43.0095V27.5933H38.6953ZM43.0095 14.954H47.1552C48.6607 14.954 49.7392 14.6282 50.3908 13.9766C51.0649 13.3025 51.402 12.3925 51.402 11.2465C51.402 10.0781 51.0649 9.16805 50.3908 8.51642C49.7392 7.84233 48.6607 7.50529 47.1552 7.50529H43.0095V14.954Z" fill="#181818"/>
<path d="M64.649 27.9977C62.9637 27.9977 61.4695 27.6382 60.1662 26.9192C58.863 26.2001 57.8406 25.189 57.0991 23.8857C56.3576 22.5825 55.9869 21.077 55.9869 19.3693C55.9869 17.6392 56.3464 16.1 57.0654 14.7518C57.8069 13.4036 58.818 12.3588 60.0988 11.6173C61.4021 10.8533 62.93 10.4713 64.6827 10.4713C66.323 10.4713 67.7723 10.8308 69.0306 11.5498C70.2889 12.2689 71.2663 13.2575 71.9629 14.5159C72.6819 15.7517 73.0414 17.1336 73.0414 18.6615C73.0414 18.9087 73.0302 19.1671 73.0077 19.4367C73.0077 19.7064 72.9965 19.9872 72.974 20.2794H60.2674C60.3572 21.5826 60.8066 22.605 61.6155 23.3465C62.4469 24.088 63.4468 24.4587 64.6153 24.4587C65.4916 24.4587 66.2218 24.2677 66.8061 23.8857C67.4127 23.4813 67.8621 22.9645 68.1542 22.3353H72.5359C72.2213 23.3914 71.6932 24.3576 70.9517 25.2339C70.2327 26.0878 69.3339 26.7619 68.2554 27.2562C67.1993 27.7505 65.9971 27.9977 64.649 27.9977ZM64.6827 13.9766C63.6266 13.9766 62.6941 14.2799 61.8852 14.8866C61.0763 15.4708 60.5595 16.3696 60.3348 17.583H68.6598C68.5924 16.482 68.1879 15.6056 67.4464 14.954C66.7049 14.3024 65.7837 13.9766 64.6827 13.9766Z" fill="#181818"/>
<path d="M74.9847 27.5933V10.8758H78.7933L79.1304 13.7069C79.6472 12.7183 80.3887 11.9318 81.3549 11.3476C82.3436 10.7634 83.5008 10.4713 84.8265 10.4713C86.8937 10.4713 88.5003 11.1229 89.6462 12.4262C90.7922 13.7294 91.3652 15.6393 91.3652 18.156V27.5933H87.051V18.5604C87.051 17.1223 86.7589 16.0213 86.1747 15.2574C85.5904 14.4934 84.6804 14.1114 83.4446 14.1114C82.2312 14.1114 81.2313 14.5383 80.4449 15.3922C79.6809 16.246 79.2989 17.4369 79.2989 18.9649V27.5933H74.9847Z" fill="#181818"/>
<path d="M101.254 27.5933C99.5014 27.5933 98.0971 27.1663 97.041 26.3125C95.9849 25.4586 95.4569 23.9419 95.4569 21.7624V14.4821H92.592V10.8758H95.4569L95.9624 6.39303H99.7711V10.8758H104.287V14.4821H99.7711V21.7961C99.7711 22.605 99.9396 23.1667 100.277 23.4813C100.636 23.7734 101.243 23.9195 102.097 23.9195H104.186V27.5933H101.254Z" fill="#181818"/>
<path d="M112.07 27.9977C110.632 27.9977 109.452 27.773 108.531 27.3236C107.61 26.8518 106.924 26.2338 106.475 25.4699C106.025 24.7059 105.801 23.8633 105.801 22.942C105.801 21.3916 106.407 20.1333 107.621 19.1671C108.834 18.2009 110.654 17.7178 113.081 17.7178H117.328V17.3133C117.328 16.1674 117.002 15.3248 116.35 14.7855C115.699 14.2462 114.89 13.9766 113.924 13.9766C113.047 13.9766 112.283 14.19 111.632 14.617C110.98 15.0214 110.576 15.6281 110.418 16.437H106.205C106.318 15.2237 106.722 14.1676 107.419 13.2688C108.138 12.37 109.059 11.6847 110.182 11.2128C111.306 10.7185 112.564 10.4713 113.957 10.4713C116.339 10.4713 118.215 11.0667 119.586 12.2576C120.957 13.4485 121.642 15.1338 121.642 17.3133V27.5933H117.968L117.564 24.8969C117.069 25.7957 116.373 26.5372 115.474 27.1214C114.598 27.7056 113.463 27.9977 112.07 27.9977ZM113.047 24.6273C114.283 24.6273 115.238 24.2228 115.912 23.4139C116.609 22.605 117.047 21.6051 117.227 20.4142H113.553C112.407 20.4142 111.587 20.6276 111.092 21.0546C110.598 21.459 110.351 21.9646 110.351 22.5713C110.351 23.2229 110.598 23.7285 111.092 24.088C111.587 24.4475 112.238 24.6273 113.047 24.6273Z" fill="#181818"/>
</svg>
