<svg width="155" height="32" viewBox="0 0 155 32" fill="none" xmlns="http://www.w3.org/2000/svg">
<path d="M6.66211 0H1.17494C0.880384 0 0.641602 0.238781 0.641602 0.533333V10.873L6.66211 0Z" fill="#181818"/>
<path d="M0.641602 14.1988C0.658956 14.1995 0.676451 14.1999 0.69408 14.1999H9.05984C9.71465 14.1999 10.2292 14.7594 10.1733 15.4106L9.44945 23.8532C9.34658 25.0529 10.9575 25.5418 11.541 24.488L20.2339 8.78866C20.6456 8.04513 20.1068 7.13341 19.2558 7.13341H10.89C10.2352 7.13341 9.72071 6.57397 9.77655 5.9227L10.2844 0H18.7264C26.5057 0 29.9929 9.78478 23.9764 14.7313L19.2731 18.5982C18.965 18.8515 18.9044 19.3004 19.1341 19.6268L27.2503 31.1597C27.4989 31.5131 27.2462 32 26.8141 32H1.17493C0.880383 32 0.641602 31.7612 0.641602 31.4667V14.1988Z" fill="#181818"/>
<path d="M92.0314 17.3198V25.4057H96.4975V16.3273C96.4975 15.257 96.2642 14.3229 95.797 13.525C95.3496 12.7076 94.7074 12.075 93.8704 11.6276C93.0335 11.1604 92.0606 10.9268 90.9512 10.9268C89.8616 10.9268 88.898 11.1604 88.0616 11.6276C87.8392 11.7464 87.6303 11.8792 87.434 12.0255C87.3277 12.1044 87.2257 12.1875 87.1272 12.2745V4.79688H82.6611V25.4057H87.1272V17.3198C87.1272 16.8333 87.2345 16.4052 87.4486 16.0354C87.6626 15.6461 87.9543 15.3542 88.3241 15.1596C88.6939 14.9456 89.122 14.8385 89.6085 14.8385C90.309 14.8385 90.8835 15.0721 91.3309 15.5391C91.798 15.9867 92.0314 16.5802 92.0314 17.3198Z" fill="#181818"/>
<path fill-rule="evenodd" clip-rule="evenodd" d="M42.409 16.9112V25.4057H37.8262V4.79688H46.2329C47.5954 4.79688 48.7923 5.05964 49.8236 5.5849C50.8548 6.09089 51.6626 6.8013 52.2465 7.71589C52.8303 8.63047 53.122 9.68151 53.122 10.8685C53.122 12.075 52.8303 13.1357 52.2465 14.0503C51.6626 14.9456 50.8454 15.6461 49.7944 16.1521C49.2079 16.4344 48.5647 16.638 47.8632 16.7628L54.4652 25.4057H49.0355L42.8887 16.9112H42.409ZM42.409 13.525H45.6788C46.5934 13.525 47.2939 13.2914 47.7803 12.8242C48.2861 12.3573 48.5392 11.7247 48.5392 10.9268C48.5392 10.1875 48.296 9.57448 47.8095 9.08802C47.323 8.6013 46.6225 8.35807 45.7079 8.35807H42.409V13.525Z" fill="#181818"/>
<path fill-rule="evenodd" clip-rule="evenodd" d="M57.4126 24.7927C58.6194 25.4154 59.9913 25.7268 61.5283 25.7268C62.7158 25.7268 63.8053 25.5224 64.798 25.1138C65.7902 24.7049 66.6371 24.0919 67.3376 23.2747L64.8855 20.8227C64.4574 21.3091 63.9611 21.6789 63.3965 21.932C62.8324 22.1654 62.2001 22.2823 61.4991 22.2823C60.7402 22.2823 60.0788 22.1266 59.5142 21.8151C58.9694 21.4844 58.5413 21.0271 58.2298 20.4432C58.1319 20.2406 58.0507 20.025 57.9855 19.7961L68.1548 19.7719C68.2329 19.4021 68.2814 19.081 68.3007 18.8086C68.3142 18.7068 68.3251 18.6076 68.334 18.5104C68.3387 18.4622 68.3423 18.4148 68.3454 18.368C68.3501 18.2974 68.3538 18.2281 68.3559 18.1602L68.3579 18.0852L68.359 17.9911C68.359 16.6094 68.048 15.3833 67.4251 14.313C66.822 13.2427 65.985 12.406 64.9147 11.8026C63.8444 11.1995 62.6085 10.8977 61.2074 10.8977C59.7673 10.8977 58.473 11.2187 57.3251 11.8609C56.1767 12.5031 55.2621 13.3888 54.5809 14.5174C53.9194 15.6266 53.5887 16.8917 53.5887 18.3122C53.5887 19.7328 53.9293 21.0076 54.61 22.1362C55.2913 23.2648 56.2257 24.1505 57.4126 24.7927ZM57.9871 16.7302C58.009 16.6542 58.0324 16.5797 58.0574 16.5068C58.1001 16.3839 58.1475 16.2654 58.2007 16.1521C58.4928 15.5682 58.8918 15.1206 59.3975 14.8094C59.923 14.4784 60.5361 14.313 61.2366 14.313C61.898 14.313 62.4527 14.4591 62.9007 14.751L62.9605 14.787L63.0204 14.8253C63.071 14.8589 63.1199 14.8943 63.1673 14.9312C63.2137 14.9674 63.259 15.0055 63.3027 15.0451C63.5741 15.2909 63.7902 15.6016 63.9512 15.9771C64.0491 16.1969 64.1283 16.4419 64.1887 16.7125L57.9871 16.7302Z" fill="#181818"/>
<path d="M76.2074 25.7268C74.7475 25.7268 73.4241 25.4057 72.2371 24.7635C71.0501 24.1214 70.1163 23.2357 69.435 22.107C68.7538 20.9784 68.4132 19.7133 68.4132 18.3122C68.4132 16.8917 68.7538 15.6266 69.435 14.5174C70.1355 13.3888 71.0793 12.5031 72.2663 11.8609C73.4538 11.2187 74.7866 10.8977 76.2658 10.8977C77.3746 10.8977 78.3866 11.0924 79.3017 11.4815C79.7678 11.6661 80.2074 11.8992 80.6204 12.1807C81.0345 12.4633 81.422 12.7945 81.7824 13.1747L78.922 16.0354C78.5913 15.6656 78.2017 15.3932 77.7543 15.218C77.5522 15.1354 77.3355 15.0724 77.1033 15.0286C76.997 15.0086 76.8882 14.9927 76.7762 14.981C76.6605 14.9687 76.5413 14.9609 76.4189 14.9576C76.3684 14.956 76.3173 14.9552 76.2658 14.9552C76.1079 14.9552 75.9543 14.9641 75.8048 14.9815L75.7246 14.9919L75.6746 14.9992C75.6225 15.0073 75.571 15.0167 75.5199 15.0268C75.1699 15.0971 74.8444 15.2193 74.5434 15.3932C74.0569 15.6656 73.6678 16.0547 73.3757 16.5607C73.1033 17.0474 72.9668 17.6214 72.9668 18.2831C72.9668 18.9448 73.1033 19.5286 73.3757 20.0344C73.6678 20.5404 74.0668 20.9393 74.5725 21.2312C75.0783 21.5232 75.6428 21.6693 76.2658 21.6693C76.8496 21.6693 77.3652 21.5719 77.8126 21.3773C78.2798 21.1633 78.6788 20.8714 79.0095 20.5016L81.8413 23.3622C81.1017 24.1406 80.2647 24.7341 79.3309 25.143C78.3965 25.532 77.3553 25.7268 76.2074 25.7268Z" fill="#181818"/>
<path fill-rule="evenodd" clip-rule="evenodd" d="M104.124 25.6977C102.82 25.6977 101.653 25.3766 100.621 24.7341C99.6095 24.0919 98.8017 23.2164 98.1986 22.107C97.6147 20.9979 97.3225 19.7328 97.3225 18.3122C97.3225 16.8917 97.6147 15.6266 98.1986 14.5174C98.8017 13.4081 99.6095 12.5326 100.621 11.8901C101.653 11.2479 102.82 10.9268 104.124 10.9268C105.078 10.9268 105.934 11.1117 106.693 11.4815C107.203 11.724 107.651 12.0292 108.036 12.3969V11.2187H112.414V25.4057H108.036V24.2562C107.773 24.5049 107.477 24.7253 107.15 24.9172C107.09 24.9523 107.028 24.9867 106.966 25.0201C106.887 25.0625 106.805 25.1034 106.722 25.143C105.944 25.5128 105.078 25.6977 104.124 25.6977ZM105.029 21.6693C105.983 21.6693 106.751 21.3578 107.335 20.7352C107.919 20.093 108.211 19.2852 108.211 18.3122C108.211 17.9812 108.177 17.6698 108.108 17.3779C108.04 17.0859 107.938 16.8135 107.802 16.5607C107.549 16.0547 107.179 15.6656 106.693 15.3932C106.43 15.2289 106.143 15.1109 105.831 15.0391C105.588 14.9831 105.331 14.9552 105.058 14.9552C104.748 14.9552 104.453 14.9917 104.176 15.0646C104.007 15.1091 103.844 15.1672 103.688 15.2388C103.588 15.2846 103.49 15.3362 103.394 15.3932C102.927 15.6656 102.548 16.0547 102.256 16.5607C101.983 17.0667 101.848 17.6505 101.848 18.3122C101.848 18.9544 101.983 19.5286 102.256 20.0344C102.528 20.5404 102.908 20.9393 103.394 21.2312C103.881 21.5232 104.426 21.6693 105.029 21.6693Z" fill="#181818"/>
<path d="M118.857 11.2187H114.391V25.4057H118.857V17.6117C118.857 16.6969 119.071 16.0159 119.5 15.5682C119.948 15.1013 120.541 14.8677 121.28 14.8677C121.65 14.8677 121.981 14.926 122.273 15.043C122.565 15.1596 122.808 15.325 123.003 15.5391L125.659 12.182C125.27 11.7539 124.813 11.4427 124.287 11.2479C123.781 11.0339 123.188 10.9268 122.506 10.9268C120.95 10.9268 119.733 11.3844 118.857 12.299V11.2187Z" fill="#181818"/>
<path fill-rule="evenodd" clip-rule="evenodd" d="M131.295 31.7693C129.739 31.7693 128.367 31.4969 127.18 30.9518C126.012 30.4266 125.088 29.6773 124.406 28.7042L127.15 25.9602C127.656 26.5635 128.221 27.0208 128.843 27.3323C129.486 27.6435 130.254 27.7992 131.15 27.7992C132.259 27.7992 133.125 27.5268 133.748 26.982C134.39 26.437 134.711 25.6682 134.711 24.6758V23.7797C134.407 24.0229 134.066 24.2339 133.689 24.413C132.911 24.7828 132.045 24.9677 131.091 24.9677C129.787 24.9677 128.629 24.6565 127.617 24.0336C126.605 23.4109 125.807 22.5643 125.224 21.494C124.64 20.4237 124.348 19.2367 124.348 17.9328C124.348 16.6094 124.64 15.4224 125.224 14.3714C125.807 13.301 126.605 12.4643 127.617 11.8609C128.629 11.2383 129.787 10.9268 131.091 10.9268C132.064 10.9268 132.93 11.1117 133.689 11.4815C133.759 11.5128 133.827 11.5453 133.894 11.5792C134.226 11.7464 134.527 11.944 134.799 12.1721V11.2187H139.177V24.5591C139.177 26.0187 138.837 27.2836 138.155 28.3539C137.474 29.4242 136.54 30.2609 135.353 30.8643C134.166 31.4677 132.814 31.7693 131.295 31.7693ZM131.938 20.9979C132.561 20.9979 133.095 20.8615 133.543 20.5891C133.658 20.5221 133.766 20.4497 133.866 20.3721C134.175 20.1344 134.418 19.8466 134.594 19.5091C134.669 19.3701 134.733 19.226 134.786 19.0768C134.855 18.8833 134.905 18.681 134.936 18.4701C134.961 18.2969 134.974 18.1177 134.974 17.9328C134.974 17.349 134.847 16.8234 134.594 16.3565C134.361 15.8893 134.01 15.5195 133.543 15.2471C133.095 14.9747 132.561 14.8385 131.938 14.8385C131.754 14.8385 131.577 14.8513 131.405 14.8766L131.316 14.8911L131.237 14.9057C131.067 14.9398 130.904 14.987 130.748 15.0471C130.661 15.0807 130.575 15.1185 130.492 15.1602C130.438 15.1875 130.385 15.2164 130.332 15.2471C129.865 15.5195 129.505 15.8893 129.252 16.3565C129.12 16.5997 129.023 16.8589 128.96 17.1339C128.902 17.3867 128.873 17.6531 128.873 17.9328C128.873 18.4776 128.999 18.9932 129.252 19.4799C129.505 19.9469 129.855 20.3167 130.303 20.5891C130.554 20.7354 130.827 20.8427 131.124 20.9104C131.378 20.9687 131.65 20.9979 131.938 20.9979Z" fill="#181818"/>
<path fill-rule="evenodd" clip-rule="evenodd" d="M144.052 24.7927C145.258 25.4154 146.63 25.7268 148.167 25.7268C149.354 25.7268 150.444 25.5224 151.437 25.1138C152.429 24.7049 153.276 24.0919 153.976 23.2747L151.524 20.8227C151.096 21.3091 150.6 21.6789 150.036 21.932C149.471 22.1654 148.839 22.2823 148.138 22.2823C147.379 22.2823 146.717 22.1266 146.153 21.8151C145.764 21.5792 145.435 21.2786 145.165 20.9135C145.122 20.8555 145.081 20.7956 145.041 20.7341C144.98 20.6411 144.923 20.544 144.869 20.4432C144.771 20.2406 144.689 20.025 144.624 19.7961L154.794 19.7719C154.832 19.5893 154.864 19.4185 154.888 19.2596C154.913 19.0966 154.93 18.9464 154.94 18.8086C154.953 18.7057 154.965 18.6052 154.974 18.5073C154.99 18.3271 154.998 18.1549 154.998 17.9911C154.998 16.6094 154.687 15.3833 154.064 14.313C153.461 13.2427 152.624 12.406 151.554 11.8026C150.483 11.1995 149.248 10.8977 147.846 10.8977C146.406 10.8977 145.112 11.2187 143.964 11.8609C142.816 12.5031 141.901 13.3888 141.22 14.5174C140.558 15.6266 140.227 16.8917 140.227 18.3122C140.227 19.7328 140.568 21.0076 141.249 22.1362C141.93 23.2648 142.864 24.1505 144.052 24.7927ZM144.626 16.7302C144.685 16.5255 144.755 16.3326 144.84 16.1521C145.006 15.8187 145.207 15.5299 145.444 15.2857C145.527 15.2 145.614 15.1198 145.706 15.0451C145.811 14.9594 145.92 14.8807 146.037 14.8094C146.562 14.4784 147.175 14.313 147.876 14.313C148.537 14.313 149.092 14.4591 149.539 14.751C149.718 14.8552 149.879 14.9792 150.024 15.1232C150.257 15.3557 150.446 15.6404 150.59 15.9771C150.688 16.1969 150.767 16.4419 150.827 16.7125L144.626 16.7302Z" fill="#181818"/>
</svg>
