<svg width="90" height="18" viewBox="0 0 90 18" fill="none" xmlns="http://www.w3.org/2000/svg">
<path d="M0.00200018 17V0.178H11.416C12.716 0.178 13.8427 0.359999 14.796 0.723999C15.7667 1.07067 16.5207 1.62533 17.058 2.388C17.5953 3.13333 17.864 4.09533 17.864 5.274C17.864 6.07133 17.7253 6.74733 17.448 7.302C17.1707 7.85667 16.7807 8.30733 16.278 8.654C15.7927 9.00067 15.2293 9.26933 14.588 9.46C13.9467 9.63333 13.262 9.746 12.534 9.798L12.17 9.59C13.3833 9.60733 14.38 9.71133 15.16 9.902C15.94 10.0753 16.5207 10.4047 16.902 10.89C17.3007 11.358 17.5 12.06 17.5 12.996V17H14.042V13.23C14.042 12.5887 13.9293 12.0947 13.704 11.748C13.4787 11.384 13.0713 11.1327 12.482 10.994C11.91 10.8553 11.078 10.786 9.986 10.786H3.46V17H0.00200018ZM3.46 8.082H11.416C12.3867 8.082 13.1233 7.848 13.626 7.38C14.146 6.912 14.406 6.27933 14.406 5.482C14.406 4.71933 14.146 4.13867 13.626 3.74C13.1233 3.34133 12.3867 3.142 11.416 3.142H3.46V8.082ZM28.5823 17.312C26.953 17.312 25.5143 17.052 24.2663 16.532C23.0356 16.012 22.0736 15.258 21.3803 14.27C20.687 13.2647 20.3403 12.034 20.3403 10.578C20.3403 9.122 20.687 7.89133 21.3803 6.886C22.0736 5.86333 23.0356 5.092 24.2663 4.572C25.5143 4.052 26.953 3.792 28.5823 3.792C30.2116 3.792 31.633 4.052 32.8463 4.572C34.077 5.092 35.039 5.86333 35.7323 6.886C36.4256 7.89133 36.7723 9.122 36.7723 10.578C36.7723 12.034 36.4256 13.2647 35.7323 14.27C35.039 15.258 34.077 16.012 32.8463 16.532C31.633 17.052 30.2116 17.312 28.5823 17.312ZM28.5823 14.712C29.4836 14.712 30.2896 14.556 31.0003 14.244C31.7283 13.9147 32.3003 13.4467 32.7163 12.84C33.1323 12.216 33.3403 11.462 33.3403 10.578C33.3403 9.694 33.1323 8.94 32.7163 8.316C32.3003 7.67467 31.737 7.18933 31.0263 6.86C30.3156 6.53067 29.501 6.366 28.5823 6.366C27.681 6.366 26.8663 6.53067 26.1383 6.86C25.4103 7.18933 24.8296 7.666 24.3963 8.29C23.9803 8.914 23.7723 9.67667 23.7723 10.578C23.7723 11.462 23.9803 12.216 24.3963 12.84C24.8123 13.4467 25.3843 13.9147 26.1123 14.244C26.8403 14.556 27.6636 14.712 28.5823 14.712ZM54.2209 17H50.8409V4.078H54.2209V17ZM51.0229 10.786L51.0489 11.67C51.0143 11.9127 50.9276 12.268 50.7889 12.736C50.6503 13.1867 50.4336 13.672 50.1389 14.192C49.8616 14.712 49.4976 15.2147 49.0469 15.7C48.5963 16.168 48.0416 16.558 47.3829 16.87C46.7243 17.1647 45.9443 17.312 45.0429 17.312C44.3323 17.312 43.6303 17.2253 42.9369 17.052C42.2609 16.8787 41.6456 16.5927 41.0909 16.194C40.5363 15.778 40.0943 15.2233 39.7649 14.53C39.4356 13.8367 39.2709 12.9613 39.2709 11.904V4.078H42.6509V11.332C42.6509 12.164 42.7809 12.8227 43.0409 13.308C43.3183 13.776 43.7169 14.1053 44.2369 14.296C44.7569 14.4867 45.3723 14.582 46.0829 14.582C47.0189 14.582 47.8249 14.3827 48.5009 13.984C49.1769 13.568 49.7229 13.0653 50.1389 12.476C50.5723 11.8867 50.8669 11.3233 51.0229 10.786ZM56.3883 4.078H66.4243V6.704H56.3883V4.078ZM59.7163 0.542H63.0963V17H59.7163V0.542ZM80.172 12.71H83.448C83.3093 13.594 82.9367 14.3827 82.33 15.076C81.7407 15.7693 80.9347 16.3153 79.912 16.714C78.8893 17.1127 77.6413 17.312 76.168 17.312C74.5213 17.312 73.0653 17.052 71.8 16.532C70.5347 15.9947 69.5467 15.2233 68.836 14.218C68.1253 13.2127 67.77 11.9993 67.77 10.578C67.77 9.15667 68.1167 7.94333 68.81 6.938C69.5033 5.91533 70.4653 5.13533 71.696 4.598C72.944 4.06067 74.4 3.792 76.064 3.792C77.7627 3.792 79.1753 4.06067 80.302 4.598C81.4287 5.13533 82.2607 5.95 82.798 7.042C83.3527 8.11667 83.5867 9.49467 83.5 11.176H71.176C71.2627 11.8347 71.5053 12.4327 71.904 12.97C72.32 13.5073 72.8747 13.932 73.568 14.244C74.2787 14.556 75.1193 14.712 76.09 14.712C77.1647 14.712 78.0573 14.53 78.768 14.166C79.496 13.7847 79.964 13.2993 80.172 12.71ZM75.908 6.366C74.66 6.366 73.646 6.64333 72.866 7.198C72.086 7.73533 71.5833 8.40267 71.358 9.2H80.146C80.0593 8.33333 79.6433 7.64867 78.898 7.146C78.17 6.626 77.1733 6.366 75.908 6.366Z" fill="white"/>
<path d="M89.9411 14.036V17H86.0151V14.036H89.9411Z" fill="#FF463A"/>
</svg>
