<svg width="159" height="32" viewBox="0 0 159 32" fill="none" xmlns="http://www.w3.org/2000/svg">
<path d="M50.7785 7.16017L51.089 7.27959L51.2125 6.9707L51.3341 6.66669L51.4669 6.3347L51.1277 6.22162C49.029 5.52204 46.9561 5.17066 44.9104 5.17066C42.8781 5.17066 41.291 5.64701 40.2119 6.65922C39.143 7.64157 38.6145 8.93065 38.6145 10.4937C38.6145 12.4695 39.4398 14.0147 41.075 15.0912C41.78 15.568 42.5555 16.0019 43.4005 16.3935L43.4005 16.3936L43.4067 16.3963C44.2389 16.7617 45.061 17.1169 45.8729 17.462L45.8757 17.4631C46.6939 17.8024 47.4396 18.1705 48.1136 18.5669C49.564 19.4259 50.2583 20.5889 50.2583 22.0768C50.2583 23.4497 49.7221 24.4651 48.6478 25.1691C47.557 25.8769 46.2255 26.2391 44.6367 26.2391C43.5565 26.2391 42.4961 26.0822 41.4545 25.7682C40.4291 25.4326 39.6071 25.0134 38.9778 24.5177L38.6825 24.285L38.4833 24.6038L38.3313 24.8471L38.1618 25.1182L38.4236 25.3018C40.2522 26.5839 42.4506 27.2174 45.0016 27.2174C46.3636 27.2174 47.5637 27.0628 48.5964 26.7466L48.5965 26.7466L48.6005 26.7453C49.682 26.3993 50.598 25.7501 51.3458 24.81C52.1075 23.8524 52.4831 22.7021 52.4831 21.3775C52.4831 20.0672 52.2653 18.9651 51.8069 18.091C51.3587 17.2164 50.7656 16.5226 50.0243 16.0212C49.3169 15.5426 48.5388 15.1175 47.6908 14.7453C46.853 14.3774 46.0148 14.0502 45.1761 13.7637C44.3781 13.4643 43.6418 13.1457 42.9666 12.8083C41.5155 12.0436 40.8392 11.0017 40.8392 9.67285C40.8392 8.55464 41.2518 7.70489 42.0734 7.08409C42.9069 6.45433 44.0925 6.11858 45.6704 6.11858C47.2632 6.11858 48.9651 6.4627 50.7785 7.16017ZM63.3773 26.5586L63.3773 26.5587L63.3833 26.5636C63.9111 26.9954 64.6368 27.187 65.5121 27.187H67.3666H67.7037V26.8499V26.6066V26.2695H67.3666H66.4545L66.15 26.2141L66.134 26.2112L66.1177 26.2098C66.0105 26.2009 65.8462 26.1242 65.6312 25.8586C65.4656 25.6118 65.3628 25.2354 65.3628 24.6913V15.1756C65.3628 14.1237 65.0934 13.2329 64.528 12.5318L64.5281 12.5317L64.5235 12.5263C64.1412 12.0723 63.5561 11.7522 62.8133 11.5392C62.0785 11.3025 61.1396 11.1902 60.0093 11.1902C58.8101 11.1902 57.7126 11.6067 56.7258 12.4213C56.1772 12.8627 55.7206 13.3296 55.3606 13.8227V11.649V11.3118H55.0235H52.8953H52.5582V11.649V26.8499V27.187H52.8953H55.0235H55.3606V26.8499V16.0572C55.3606 15.3864 55.7943 14.5576 56.81 13.5618L56.8123 13.5595C57.7915 12.5803 58.8741 12.1077 60.0701 12.1077C60.6602 12.1077 61.1318 12.2025 61.4987 12.3755C62.1545 12.7319 62.5604 13.5834 62.5604 15.1452V24.6913V24.7012L62.5609 24.7111L62.5913 25.2269C62.5913 25.227 62.5913 25.2272 62.5913 25.2273C62.619 25.7228 62.9188 26.1656 63.3773 26.5586ZM67.9894 13.3867L67.9877 13.3884C66.5307 14.8668 65.8233 16.9278 65.8233 19.523C65.8233 22.1122 66.5077 24.0945 67.9402 25.3968C69.3507 26.6791 71.1695 27.3086 73.3657 27.3086C75.5946 27.3086 77.4472 26.5798 78.895 25.1112C80.3725 23.6331 81.0905 21.5718 81.0905 18.9758C81.0905 16.3866 80.4061 14.4043 78.9736 13.102C77.5625 11.8192 75.7332 11.1902 73.5177 11.1902C71.3077 11.1902 69.4562 11.9199 67.9894 13.3867ZM70.0181 14.0395L70.0195 14.0376C70.9775 12.7348 72.1584 12.1077 73.5785 12.1077C75.0191 12.1077 76.157 12.651 77.0234 13.7434C77.8867 14.8319 78.3489 16.5549 78.3489 18.9758C78.3489 21.3649 77.8507 23.1904 76.8949 24.4908C75.9379 25.7726 74.7571 26.3911 73.3353 26.3911C71.8947 26.3911 70.7568 25.8479 69.8904 24.7554C69.0268 23.6666 68.5649 21.9533 68.5649 19.5534C68.5649 17.1424 69.0637 15.3183 70.0181 14.0395ZM101.44 11.593L101.194 11.8392L101.448 12.0773C101.685 12.2989 101.828 12.643 101.828 13.1691C101.828 13.7098 101.716 14.1565 101.508 14.5219L101.5 14.5345L101.494 14.5478L97.4267 23.3563L93.0569 11.5321L92.9755 11.3118H92.7406H90.6125H90.1299L90.2959 11.7649L91.373 14.705L87.3935 23.3547L83.0243 11.5321L82.9429 11.3118H82.7081H80.5799H80.0948L80.2639 11.7665L85.9187 26.9674L86.0004 27.187H86.2347H86.5387H86.7557L86.8456 26.9894L91.8582 15.9673L95.9513 26.9674L96.033 27.187H96.2672H96.5713H96.7883L96.8781 26.9895L102.411 14.8288L102.411 14.8288L102.414 14.822C102.673 14.2179 102.806 13.6154 102.806 13.017C102.806 12.8491 102.783 12.6756 102.74 12.4978C102.707 12.271 102.598 12.0469 102.448 11.8303C102.384 11.7247 102.321 11.6312 102.257 11.5547C102.195 11.4809 102.114 11.3986 102.012 11.3474L101.795 11.2387L101.623 11.4106L101.44 11.593Z" fill="#181818" stroke="#181818" stroke-width="0.674298"/>
<path d="M107.481 5.90315C107.985 5.12975 108.777 4.52531 109.866 4.40531L109.601 24.8981H109.601V24.9025C109.601 25.1335 109.672 25.3685 109.788 25.6005C110.344 26.7128 111.649 27.1854 113.464 27.1854H114.407H114.744V26.8482V26.605V26.2678H114.407H113.495L113.19 26.2125L113.174 26.2096L113.158 26.2082C113.051 26.1993 112.887 26.1226 112.672 25.857C112.506 25.6101 112.403 25.2338 112.403 24.6897V4.07728V3.7456L112.072 3.74017L110.213 3.70977L109.875 3.70424L109.875 3.71668C107.871 3.78258 106.339 4.27797 105.35 5.26648C104.302 6.29328 103.821 7.97618 103.821 10.2184V11.3102H103.52H103.182V11.6473V12.1385V12.4757H103.52H103.821V26.8482V27.1854H104.158H106.286H106.623V26.8482V12.4757H108.688H109.025V12.1385V11.6473V11.3102H108.688H106.623V10.2184C106.623 8.14647 106.928 6.73167 107.479 5.90599L107.479 5.906L107.481 5.90315ZM123.277 14.5985V19.1878C122.92 19.1651 122.536 19.1538 122.125 19.1538C121.567 19.1538 120.96 19.1847 120.305 19.246C118.988 19.3279 117.889 19.4819 117.015 19.7122C116.146 19.9412 115.467 20.2538 115.022 20.6751C114.619 21.0567 114.334 21.4435 114.229 21.8362C114.142 22.1633 114.096 22.4765 114.096 22.7744C114.096 23.0354 114.118 23.2962 114.161 23.5566C114.343 24.7719 114.822 25.7239 115.629 26.367C116.433 27.0074 117.517 27.307 118.842 27.307C119.983 27.307 120.987 27.0715 121.843 26.5867C122.42 26.2596 122.92 25.8239 123.345 25.284C123.464 25.6267 123.731 25.9661 124.076 26.2967C124.684 26.9246 125.748 27.1854 127.141 27.1854H128.084H128.203H128.421H128.54H130.669H131.006V26.8482V19.6476L131.456 19.13L136.835 27.0378L136.935 27.1854H137.114H139.242H139.879L139.521 26.6585L133.132 17.2685L137.913 11.8709L138.41 11.3102H137.661H137.357H137.205L137.105 11.4236L131.006 18.2988V4.04688V3.70973H130.669H128.54H128.203V4.04688V26.2678H128.084H127.172L126.867 26.2125L126.851 26.2096L126.835 26.2082C126.728 26.1993 126.563 26.1226 126.348 25.857C126.183 25.6101 126.08 25.2337 126.08 24.6897V14.5051C126.08 13.7564 125.773 13.0613 125.204 12.4258C124.811 11.9859 124.232 11.6793 123.506 11.4816C122.778 11.2836 121.879 11.1886 120.818 11.1886C118.901 11.1886 117.019 11.616 115.174 12.466L114.84 12.6199L115.022 12.9395L115.144 13.1523L115.31 13.4436L115.602 13.2785C116.03 13.0367 116.726 12.782 117.712 12.5204L117.712 12.5205L117.716 12.5192C118.711 12.2407 119.561 12.1061 120.27 12.1061C120.994 12.1061 121.552 12.2045 121.96 12.3821L121.96 12.3823L121.972 12.3869C122.408 12.5576 122.662 12.7483 122.79 12.9337C122.957 13.1744 123.085 13.4218 123.176 13.676L123.181 13.6902L123.187 13.7039C123.292 13.9321 123.303 14.0742 123.286 14.1551C123.264 14.2431 123.247 14.3361 123.247 14.4215C123.247 14.4647 123.251 14.5266 123.275 14.5918C123.276 14.594 123.277 14.5962 123.277 14.5985ZM123.277 23.458C123.223 24.0137 122.836 24.6543 121.996 25.3766C121.203 26.056 120.318 26.3894 119.328 26.3894C118.6 26.3894 118.07 26.1526 117.694 25.7042C117.306 25.2419 117.046 24.5152 116.958 23.4755L116.958 23.4755L116.958 23.4705C116.938 23.2762 116.929 23.1053 116.929 22.9568C116.929 22.1238 117.146 21.5151 117.539 21.0873C117.719 20.8916 118.028 20.7025 118.503 20.5395C118.974 20.3778 119.583 20.2499 120.339 20.1604C120.874 20.101 121.408 20.0713 121.943 20.0713C122.394 20.0713 122.839 20.0844 123.277 20.1104V23.458ZM141.234 18.0648H151.782H152.119V17.7277V17.7271V17.7265V17.7259V17.7253V17.7247V17.7241V17.7235V17.7229V17.7223V17.7217V17.7211V17.7205V17.72V17.7194V17.7188V17.7182V17.7176V17.717V17.7164V17.7158V17.7152V17.7146V17.714V17.7134V17.7128V17.7122V17.7116V17.711V17.7105V17.7099V17.7093V17.7087V17.7081V17.7075V17.7069V17.7063V17.7057V17.7051V17.7045V17.7039V17.7033V17.7027V17.7021V17.7015V17.701V17.7004V17.6998V17.6992V17.6986V17.698V17.6974V17.6968V17.6962V17.6956V17.695V17.6944V17.6938V17.6932V17.6926V17.692V17.6915V17.6909V17.6903V17.6897V17.6891V17.6885V17.6879V17.6873V17.6867V17.6861V17.6855V17.6849V17.6843V17.6837V17.6831V17.6825V17.682V17.6814V17.6808V17.6802V17.6796V17.679V17.6784V17.6778V17.6772V17.6766V17.676V17.6754V17.6748V17.6742V17.6736V17.673V17.6725V17.6719V17.6713V17.6707V17.6701V17.6695V17.6689V17.6683V17.6677V17.6671V17.6665V17.6659V17.6653V17.6647V17.6641V17.6635V17.6629V17.6624V17.6618V17.6612V17.6606V17.66V17.6594V17.6588V17.6582V17.6576V17.657V17.6564V17.6558V17.6552V17.6546V17.654V17.6534V17.6529V17.6523V17.6517V17.6511V17.6505V17.6499V17.6493V17.6487V17.6481V17.6475V17.6469V17.6463V17.6457V17.6451V17.6445V17.6439V17.6434V17.6428V17.6422V17.6416V17.641V17.6404V17.6398V17.6392V17.6386V17.638V17.6374V17.6368V17.6362V17.6356V17.635V17.6344V17.6339V17.6333V17.6327V17.6321V17.6315V17.6309V17.6303V17.6297V17.6291V17.6285V17.6279V17.6273V17.6267V17.6261V17.6255V17.6249V17.6244V17.6238V17.6232V17.6226V17.622V17.6214V17.6208V17.6202V17.6196V17.619V17.6184V17.6178V17.6172V17.6166V17.616V17.6154V17.6149V17.6143V17.6137V17.6131V17.6125V17.6119V17.6113V17.6107V17.6101V17.6095V17.6089V17.6083V17.6077V17.6071V17.6065V17.6059V17.6054V17.6048V17.6042V17.6036V17.603V17.6024V17.6018V17.6012V17.6006V17.6V17.5994V17.5988V17.5982V17.5976V17.597V17.5964V17.5959V17.5953V17.5947V17.5941V17.5935V17.5929V17.5923V17.5917V17.5911V17.5905V17.5899V17.5893V17.5887V17.5881V17.5875V17.5869V17.5864V17.5858V17.5852V17.5846V17.584V17.5834V17.5828V17.5822V17.5816V17.581V17.5804V17.5798V17.5792V17.5786V17.578V17.5774V17.5768V17.5763V17.5757V17.5751V17.5745V17.5739V17.5733V17.5727V17.5721V17.5715V17.5709V17.5703V17.5697V17.5691V17.5685V17.5679V17.5673V17.5668V17.5662V17.5656V17.565V17.5644V17.5638V17.5632V17.5626V17.562V17.5614V17.5608V17.5602V17.5596V17.559V17.5584V17.5578V17.5573V17.5567V17.5561V17.5555V17.5549V17.5543V17.5537V17.5531V17.5525V17.5519V17.5513V17.5507V17.5501V17.5495V17.5489V17.5483V17.5478V17.5472V17.5466V17.546V17.5454V17.5448V17.5442V17.5436V17.543V17.5424V17.5418V17.5412V17.5406V17.54V17.5394V17.5388V17.5383V17.5377V17.5371V17.5365V17.5359V17.5353V17.5347V17.5341V17.5335V17.5329V17.5323V17.5317V17.5311V17.5305V17.5299V17.5293V17.5288V17.5282V17.5276V17.527V17.5264V17.5258V17.5252V17.5246V17.524V17.5234V17.5228V17.5222V17.5216V17.521V17.5204V17.5198V17.5193V17.5187V17.5181V17.5175V17.5169V17.5163V17.5157V17.5151V17.5145V17.5139V17.5133V17.5127V17.5121V17.5115V17.5109V17.5103V17.5098V17.5092V17.5086V17.508V17.5074V17.5068V17.5062V17.5056V17.505V17.5044V17.5038V17.5032V17.5026V17.502V17.5014V17.5008V17.5003V17.4997V17.4991V17.4985V17.4979V17.4973V17.4967V17.4961V17.4955V17.4949V17.4943V17.4937V17.4931V17.4925V17.4919V17.4913V17.4908V17.4902V17.4896V17.489V17.4884V17.4878V17.4872V17.4866V17.486V17.4854V17.4848V17.4842V17.4836V17.483V17.4824V17.4818V17.4813V17.4807V17.4801V17.4795V17.4789V17.4783V17.4777V17.4771V17.4765V17.4759V17.4753V17.4747V17.4741V17.4735V17.4729V17.4723V17.4718V17.4712V17.4706V17.47V17.4694V17.4688V17.4682V17.4676V17.467V17.4664V17.4658V17.4652V17.4646V17.464V17.4634V17.4628V17.4622V17.4617V17.4611V17.4605V17.4599V17.4593V17.4587V17.4581V17.4575V17.4569V17.4563V17.4557V17.4551V17.4545V17.4539V17.4533V17.4527V17.4522V17.4516V17.451V17.4504V17.4498V17.4492V17.4486V17.448V17.4474V17.4468V17.4462V17.4456V17.445V17.4444V17.4438V17.4432V17.4427V17.4421V17.4415V17.4409V17.4403V17.4397V17.4391V17.4385V17.4379V17.4373V17.4367V17.4361V17.4355V17.4349V17.4343V17.4337V17.4332V17.4326V17.432V17.4314V17.4308V17.4302V17.4296V17.429V17.4284V17.4278V17.4272V17.4266V17.426V17.4254V17.4248V17.4242V17.4237C152.119 15.4108 151.53 13.8363 150.302 12.7617C149.099 11.7091 147.619 11.1886 145.884 11.1886C143.732 11.1886 141.939 11.9205 140.533 13.3904C139.119 14.8691 138.433 16.9288 138.433 19.5214C138.433 22.1063 139.085 24.0866 140.453 25.3898C141.802 26.6746 143.542 27.307 145.641 27.307C147.722 27.307 149.599 26.9875 151.265 26.3417L151.591 26.2155L151.454 25.8945L151.362 25.6817L151.234 25.3833L150.931 25.4999C149.396 26.0904 147.634 26.3894 145.641 26.3894C144.311 26.3894 143.244 25.854 142.414 24.761C141.608 23.6721 141.175 21.9165 141.175 19.4302C141.175 18.9611 141.194 18.506 141.234 18.0648ZM148.324 13.3752C148.947 14.171 149.312 15.4114 149.37 17.1473H141.351C141.614 15.5952 142.141 14.3918 142.913 13.5133C143.774 12.5578 144.721 12.1061 145.763 12.1061C146.811 12.1061 147.657 12.5222 148.324 13.3752Z" fill="#181818" stroke="#181818" stroke-width="0.674298"/>
<path d="M154.588 3.72836V4.53154H153.675V6.97514H152.808V4.53154H151.895V3.72836H154.588Z" fill="#181818"/>
<path d="M158.147 3.67969V6.98975H157.28V5.38339L156.645 6.13789H156.385L155.75 5.38339V6.98975H154.883V3.67969H155.189L156.515 5.09133L157.841 3.67969H158.147Z" fill="#181818"/>
<path fill-rule="evenodd" clip-rule="evenodd" d="M14.8888 21.5565L14.8756 31.9972L17.0823 32L17.0956 21.5123L21.1213 31.1969L23.1589 30.3498L19.1609 20.7319L26.5166 28.1062L28.0789 26.5478L20.6923 19.1424L30.3523 23.1515L31.1982 21.1133L21.5355 17.1032H31.9972V14.8965H21.5617L31.2075 10.9127L30.3651 8.87313L20.7603 12.8399L28.1463 5.52949L26.5939 3.96111L19.1149 11.3636L23.145 1.64364L21.1065 0.798473L17.1096 10.4386L17.1228 0.00279664L14.9161 0L14.9028 10.4881L10.8772 0.803578L8.8395 1.6506L12.8368 11.2669L5.4822 3.89364L3.91985 5.45203L11.3074 12.8583L1.64497 8.84828L0.799102 10.8864L10.4615 14.8965H0V17.1032H10.4377L0.790861 21.0873L1.63322 23.1269L11.2377 19.1603L3.85248 26.47L5.40482 28.0384L12.8802 20.6394L8.85162 30.3559L10.8901 31.201L14.8888 21.5565Z" fill="#181818"/>
</svg>
