<svg width="40" height="31" viewBox="0 0 40 31" fill="none" xmlns="http://www.w3.org/2000/svg">
<path d="M33.7093 18.1431C31.9634 17.6734 31.0905 16.9687 31.0905 16.0292C31.0905 15.047 31.5269 13.3388 32.3999 10.9046C33.3164 8.47041 34.7131 5.45969 36.5899 1.87246C36.5899 1.53081 36.4372 1.18917 36.1316 0.84753C35.8261 0.505888 35.5206 0.33507 35.2151 0.33507C33.9057 0.33507 31.9198 2.94009 29.2573 8.15012C26.6386 13.3601 25.3292 17.4385 25.3292 20.3852C25.3292 23.3318 26.1366 25.8301 27.7515 27.8799C29.3665 29.8871 31.1778 30.8906 33.1855 30.8906C35.2369 30.8906 36.83 30.3355 37.9648 29.2251C39.0996 28.1148 39.667 26.556 39.667 24.5489C39.667 21.3033 37.6811 19.1681 33.7093 18.1431Z" fill="white"/>
<path d="M9.55102 18.5275C8.32892 18.1431 7.71787 17.6307 7.71787 16.9901C7.71787 15.1538 8.65627 12.5488 10.5331 9.17504C12.4099 5.80133 13.3482 3.98636 13.3482 3.73013C13.3482 2.74791 12.9991 2.2568 12.3007 2.2568C10.6422 2.2568 8.3071 4.84047 5.2955 10.0078C2.2839 15.1324 0.778103 19.1681 0.778103 22.1147C0.778103 27.8799 3.17865 30.7625 7.97975 30.7625C9.94383 30.7625 11.5369 30.2714 12.759 29.2892C13.9811 28.307 14.5922 26.9617 14.5922 25.2535C14.5922 23.6734 14.0684 22.2428 13.0209 20.9617C11.9734 19.6805 10.8168 18.8691 9.55102 18.5275Z" fill="white"/>
</svg>
