<svg width="142" height="32" viewBox="0 0 142 32" fill="none" xmlns="http://www.w3.org/2000/svg">
<path d="M62.1547 4.77833C62.6448 5.29292 63.3921 5.55022 64.3968 5.55022C65.4015 5.55022 66.1366 5.29292 66.6022 4.77833C67.0678 4.23924 67.3006 3.57763 67.3006 2.79349C67.3006 1.96034 67.0678 1.28648 66.6022 0.771885C66.1366 0.257295 65.4015 0 64.3968 0C63.3921 0 62.6448 0.257295 62.1547 0.771885C61.6891 1.28648 61.4563 1.96034 61.4563 2.79349C61.4563 3.57763 61.6891 4.23924 62.1547 4.77833Z" fill="#181818"/>
<path d="M38.8213 7.93939L45.0699 27.8981H53.2666L58.6698 7.93939H53.7444L49.6788 23.7079H48.8109L44.0775 7.93939H38.8213Z" fill="#181818"/>
<path d="M78.9228 28.523C76.1783 28.523 74.0219 27.9471 72.4536 26.7954C70.9099 25.6192 70.1012 24.0019 70.0277 21.9436H74.6223C74.6958 22.6297 75.0756 23.2546 75.7617 23.8182C76.4478 24.3818 77.526 24.6636 78.9963 24.6636C80.2215 24.6636 81.1894 24.443 81.9 24.0019C82.6352 23.5609 83.0027 22.9605 83.0027 22.2009C83.0027 21.5393 82.7209 21.0124 82.1573 20.6203C81.6182 20.2283 80.6871 19.971 79.3638 19.8485L77.5995 19.6647C75.3697 19.4196 73.6544 18.7825 72.4536 17.7533C71.2529 16.7242 70.6526 15.3519 70.6526 13.6366C70.6526 12.2644 70.9956 11.1127 71.6818 10.1815C72.3679 9.25036 73.3113 8.55199 74.512 8.08641C75.7372 7.59633 77.134 7.35128 78.7022 7.35128C81.1527 7.35128 83.1375 7.89038 84.6568 8.96856C86.176 10.0468 86.9724 11.6273 87.0459 13.7101H82.4514C82.4024 13.024 82.0593 12.4359 81.4222 11.9458C80.7851 11.4557 79.8662 11.2107 78.6655 11.2107C77.5873 11.2107 76.7541 11.419 76.166 11.8356C75.5779 12.2521 75.2839 12.7912 75.2839 13.4528C75.2839 14.09 75.5167 14.58 75.9823 14.9231C76.4723 15.2662 77.2565 15.499 78.3347 15.6215L80.099 15.8053C82.4514 16.0503 84.2892 16.6997 85.6124 17.7533C86.9602 18.807 87.634 20.2283 87.634 22.0171C87.634 23.3403 87.2665 24.492 86.5313 25.4722C85.8207 26.4279 84.8161 27.1752 83.5173 27.7143C82.2186 28.2534 80.6871 28.523 78.9228 28.523Z" fill="#181818"/>
<path d="M90.605 4.77833C91.0951 5.29292 91.8425 5.55022 92.8471 5.55022C93.8518 5.55022 94.5869 5.29292 95.0525 4.77833C95.5181 4.23924 95.7509 3.57763 95.7509 2.79349C95.7509 1.96034 95.5181 1.28648 95.0525 0.771885C94.5869 0.257295 93.8518 0 92.8471 0C91.8425 0 91.0951 0.257295 90.605 0.771885C90.1394 1.28648 89.9066 1.96034 89.9066 2.79349C89.9066 3.57763 90.1394 4.23924 90.605 4.77833Z" fill="#181818"/>
<path fill-rule="evenodd" clip-rule="evenodd" d="M109.726 28.5965C107.961 28.5965 106.405 28.3147 105.057 27.7511C103.71 27.1875 102.57 26.4279 101.639 25.4722C100.708 24.492 99.9973 23.3893 99.5072 22.1641C99.0416 20.9389 98.8089 19.6647 98.8089 18.3414V17.5696C98.8089 16.1973 99.0539 14.8986 99.544 13.6734C100.059 12.4237 100.781 11.321 101.713 10.3653C102.668 9.38514 103.82 8.6255 105.168 8.08641C106.515 7.52281 108.035 7.24101 109.726 7.24101C111.416 7.24101 112.936 7.52281 114.283 8.08641C115.631 8.6255 116.77 9.38514 117.702 10.3653C118.657 11.321 119.38 12.4237 119.87 13.6734C120.36 14.8986 120.605 16.1973 120.605 17.5696V18.3414C120.605 19.6647 120.36 20.9389 119.87 22.1641C119.405 23.3893 118.706 24.492 117.775 25.4722C116.844 26.4279 115.705 27.1875 114.357 27.7511C113.009 28.3147 111.465 28.5965 109.726 28.5965ZM109.726 24.2225C110.975 24.2225 112.029 23.9529 112.887 23.4138C113.744 22.8502 114.394 22.1029 114.835 21.1717C115.276 20.216 115.496 19.1378 115.496 17.9371C115.496 16.7119 115.263 15.6337 114.798 14.7026C114.357 13.7469 113.695 12.9995 112.813 12.4604C111.955 11.8968 110.926 11.615 109.726 11.615C108.525 11.615 107.483 11.8968 106.601 12.4604C105.744 12.9995 105.082 13.7469 104.616 14.7026C104.151 15.6337 103.918 16.7119 103.918 17.9371C103.918 19.1378 104.139 20.216 104.58 21.1717C105.045 22.1029 105.707 22.8502 106.564 23.4138C107.422 23.9529 108.476 24.2225 109.726 24.2225Z" fill="#181818"/>
<path d="M127.726 11.4312C127.55 11.8703 127.403 12.3458 127.284 12.8578V7.93939H123.241V27.8981H128.35V16.1728C128.35 14.8741 128.73 13.8449 129.49 13.0853C130.274 12.3011 131.291 11.9091 132.541 11.9091C133.766 11.9091 134.721 12.2889 135.408 13.0485C136.118 13.8082 136.474 14.8006 136.474 16.0258V27.8981H141.583V16.4669C141.583 13.4283 140.97 11.1494 139.745 9.63018C138.52 8.08641 136.719 7.31453 134.342 7.31453H134.121C132.528 7.31453 131.193 7.65759 130.115 8.34371C129.061 9.02983 128.265 10.059 127.726 11.4312Z" fill="#181818"/>
<path d="M62.5222 11.7621V27.8981H67.6314V7.93939H59.7287V11.7621H62.5222Z" fill="#181818"/>
<path d="M90.9726 11.7621V27.8981H96.0817V7.93939H88.1791V11.7621H90.9726Z" fill="#181818"/>
<mask id="path-2-inside-1_243_7702" fill="white">
<path fill-rule="evenodd" clip-rule="evenodd" d="M16.7236 32C25.5602 32 32.7236 24.8366 32.7236 16C32.7236 7.16344 25.5602 0 16.7236 0C7.88708 0 0.723633 7.16344 0.723633 16C0.723633 24.8366 7.88708 32 16.7236 32ZM28.499 14.3393C27.0071 16.084 24.9056 17.1704 22.5774 17.1704C18.0513 17.1704 14.3822 13.0646 14.3822 7.9997C14.3822 6.72546 14.6145 5.51191 15.0342 4.40918C9.36263 5.27057 5.0166 10.1676 5.0166 16.0796C5.0166 17.8046 5.38658 19.4432 6.05151 20.9203C6.72603 20.2927 7.67401 19.9023 8.72392 19.9023C10.7714 19.9023 12.4312 21.3874 12.4312 23.2193C12.4312 24.4495 11.6828 25.5232 10.5712 26.0959C12.3838 27.2294 14.5261 27.8845 16.8215 27.8845C23.3411 27.8845 28.6264 22.5993 28.6264 16.0796C28.6264 15.4884 28.5829 14.9073 28.499 14.3393Z"/>
</mask>
<path fill-rule="evenodd" clip-rule="evenodd" d="M16.7236 32C25.5602 32 32.7236 24.8366 32.7236 16C32.7236 7.16344 25.5602 0 16.7236 0C7.88708 0 0.723633 7.16344 0.723633 16C0.723633 24.8366 7.88708 32 16.7236 32ZM28.499 14.3393C27.0071 16.084 24.9056 17.1704 22.5774 17.1704C18.0513 17.1704 14.3822 13.0646 14.3822 7.9997C14.3822 6.72546 14.6145 5.51191 15.0342 4.40918C9.36263 5.27057 5.0166 10.1676 5.0166 16.0796C5.0166 17.8046 5.38658 19.4432 6.05151 20.9203C6.72603 20.2927 7.67401 19.9023 8.72392 19.9023C10.7714 19.9023 12.4312 21.3874 12.4312 23.2193C12.4312 24.4495 11.6828 25.5232 10.5712 26.0959C12.3838 27.2294 14.5261 27.8845 16.8215 27.8845C23.3411 27.8845 28.6264 22.5993 28.6264 16.0796C28.6264 15.4884 28.5829 14.9073 28.499 14.3393Z" fill="#181818"/>
<path d="M28.499 14.3393L31.1438 13.9485L30.2851 8.13702L26.4671 12.6017L28.499 14.3393ZM15.0342 4.40918L17.5329 5.36016L19.1626 1.07794L14.6327 1.76595L15.0342 4.40918ZM6.05151 20.9203L3.61359 22.0177L5.1436 25.4166L7.87258 22.8777L6.05151 20.9203ZM10.5712 26.0959L9.34672 23.7193L5.16954 25.8714L9.15367 28.3628L10.5712 26.0959ZM30.0501 16C30.0501 23.36 24.0836 29.3265 16.7236 29.3265V34.6735C27.0367 34.6735 35.3972 26.3131 35.3972 16H30.0501ZM16.7236 2.67355C24.0836 2.67355 30.0501 8.64 30.0501 16H35.3972C35.3972 5.68689 27.0367 -2.67355 16.7236 -2.67355V2.67355ZM3.39718 16C3.39718 8.64 9.36364 2.67355 16.7236 2.67355V-2.67355C6.41052 -2.67355 -1.94991 5.68689 -1.94991 16H3.39718ZM16.7236 29.3265C9.36364 29.3265 3.39718 23.36 3.39718 16H-1.94991C-1.94991 26.3131 6.41052 34.6735 16.7236 34.6735V29.3265ZM22.5774 19.844C25.7736 19.844 28.59 18.3465 30.5309 16.0769L26.4671 12.6017C25.4241 13.8214 24.0376 14.4969 22.5774 14.4969V19.844ZM11.7087 7.9997C11.7087 14.2504 16.2999 19.844 22.5774 19.844V14.4969C19.8027 14.4969 17.0558 11.8787 17.0558 7.9997H11.7087ZM12.5355 3.4582C12.0004 4.86407 11.7087 6.39984 11.7087 7.9997H17.0558C17.0558 7.05108 17.2285 6.15976 17.5329 5.36016L12.5355 3.4582ZM7.69015 16.0796C7.69015 11.5089 11.0509 7.71836 15.4356 7.05241L14.6327 1.76595C7.67435 2.82278 2.34306 8.82618 2.34306 16.0796H7.69015ZM8.48944 19.8228C7.97676 18.6839 7.69015 17.4189 7.69015 16.0796H2.34306C2.34306 18.1903 2.7964 20.2024 3.61359 22.0177L8.48944 19.8228ZM8.72392 17.2287C7.01226 17.2287 5.40981 17.8656 4.23044 18.9628L7.87258 22.8777C8.04225 22.7199 8.33575 22.5758 8.72392 22.5758V17.2287ZM15.1048 23.2193C15.1048 19.6389 11.9606 17.2287 8.72392 17.2287V22.5758C9.10201 22.5758 9.39097 22.7126 9.56268 22.8662C9.7297 23.0157 9.75769 23.1446 9.75769 23.2193H15.1048ZM11.7956 28.4726C13.6594 27.5124 15.1048 25.5966 15.1048 23.2193H9.75769C9.75769 23.2791 9.74229 23.3473 9.68703 23.431C9.62764 23.5209 9.51853 23.6308 9.34672 23.7193L11.7956 28.4726ZM16.8215 25.211C15.0418 25.211 13.3886 24.7045 11.9887 23.8291L9.15367 28.3628C11.3789 29.7542 14.0104 30.5581 16.8215 30.5581V25.211ZM25.9528 16.0796C25.9528 21.1227 21.8646 25.211 16.8215 25.211V30.5581C24.8177 30.5581 31.2999 24.0758 31.2999 16.0796H25.9528ZM25.8542 14.7301C25.919 15.1691 25.9528 15.6196 25.9528 16.0796H31.2999C31.2999 15.3572 31.2468 14.6454 31.1438 13.9485L25.8542 14.7301Z" fill="#181818" mask="url(#path-2-inside-1_243_7702)"/>
</svg>
