<svg width="152" height="32" viewBox="0 0 152 32" fill="none" xmlns="http://www.w3.org/2000/svg">
<path d="M15.9064 1.99966C15.9077 1.89131 15.8763 1.78508 15.8165 1.69476C15.7566 1.60444 15.6709 1.53422 15.5706 1.49324C15.4703 1.45225 15.36 1.4424 15.254 1.46495C15.148 1.48749 15.0512 1.5414 14.9763 1.61967L1.15633 15.1797C1.08155 15.2552 1.03072 15.3511 1.01018 15.4553C0.989648 15.5596 1.00031 15.6676 1.04088 15.7658C1.08145 15.8641 1.15011 15.9481 1.23824 16.0075C1.32637 16.0669 1.43007 16.0989 1.53634 16.0997H15.9064V1.99966Z" stroke="#FF463A" stroke-width="1.95" stroke-miterlimit="10"/>
<path d="M22.1465 16.0938H8.04642V30.4538C8.04516 30.5609 8.07582 30.6659 8.13444 30.7556C8.19306 30.8453 8.27702 30.9155 8.37565 30.9573C8.47428 30.9991 8.58313 31.0106 8.68833 30.9904C8.79353 30.9702 8.89036 30.9191 8.96647 30.8438L22.5265 17.0137C22.6013 16.9382 22.652 16.8424 22.6726 16.7381C22.6931 16.6338 22.6825 16.5258 22.6419 16.4276C22.6013 16.3294 22.5327 16.2453 22.4446 16.1859C22.3564 16.1265 22.2527 16.0945 22.1465 16.0938Z" stroke="#FF463A" stroke-width="1.95" stroke-miterlimit="10"/>
<path fill-rule="evenodd" clip-rule="evenodd" d="M113.561 4.89844L117.938 0V23.4641H113.561V4.89844ZM132.043 6.73289L123.563 14.21L132.817 23.4641H127.263L118.039 14.0717L126.084 6.73289H132.043ZM35.713 18.5576C35.9943 19.0362 36.4024 19.4485 36.9374 19.7947C37.7229 20.266 38.744 20.5016 40.0008 20.5016C40.8537 20.5016 41.5157 20.4231 41.987 20.266C42.4583 20.1089 42.7838 19.8845 42.9633 19.5927C43.1428 19.2785 43.2326 18.9306 43.2326 18.5491C43.2326 18.0778 43.0867 17.7187 42.795 17.4718C42.5032 17.2025 42.0544 16.9893 41.4484 16.8322C40.8424 16.6751 40.0682 16.5292 39.1255 16.3946C38.1829 16.2375 37.274 16.0467 36.3987 15.8223C35.5235 15.5979 34.7492 15.3061 34.0759 14.947C33.4026 14.5655 32.864 14.0942 32.46 13.5331C32.0785 12.9496 31.8877 12.2426 31.8877 11.4122C31.8877 10.6043 32.0785 9.88612 32.46 9.25772C32.864 8.62932 33.4138 8.10191 34.1095 7.67549C34.8277 7.24908 35.6581 6.92365 36.6007 6.69922C37.5658 6.47479 38.5981 6.36258 39.6978 6.36258C41.3586 6.36258 42.7389 6.60945 43.8386 7.1032C44.9383 7.5745 45.9615 8.52316 46.5002 9.39844L43.5422 11.9322C43.3199 11.0962 42.7276 10.6604 42.189 10.3013C41.6504 9.91979 40.82 9.72902 39.6978 9.72902C38.5981 9.72902 37.7678 9.89734 37.2067 10.234C36.6456 10.5706 36.3651 11.0307 36.3651 11.6142C36.3651 12.0855 36.5334 12.4558 36.87 12.7252C37.2291 12.972 37.7453 13.174 38.4186 13.3311C39.1143 13.4882 39.9784 13.6565 41.0108 13.8361C41.886 14.0156 42.7164 14.2176 43.5019 14.442C44.3099 14.6665 45.028 14.9582 45.6565 15.3173C46.2849 15.654 46.7786 16.114 47.1377 16.6976C47.5192 17.2586 47.71 17.9768 47.71 18.8521C47.71 19.9293 47.3958 20.8383 46.7674 21.5789C46.1614 22.3195 45.2861 22.8918 44.1416 23.2958C42.997 23.6773 41.6279 23.8681 40.0345 23.8681C38.6206 23.8681 37.3974 23.7222 36.3651 23.4305C35.3551 23.1162 34.5135 22.7235 33.8402 22.2522C33.37 21.9074 32.971 21.5516 32.6431 21.1849L35.713 18.5576ZM59.4405 23.0938C60.4953 23.61 61.7633 23.8681 63.2445 23.8681C64.9053 23.8681 66.409 23.509 67.7556 22.7908C69.1022 22.0727 70.1794 21.0627 70.9874 19.761C71.7953 18.4369 72.1993 16.8883 72.1993 15.1153C72.1993 13.3872 71.7953 11.8723 70.9874 10.5706C70.2019 9.2465 69.1358 8.21412 67.7892 7.47351C66.4427 6.73289 64.9278 6.36258 63.2445 6.36258C61.7409 6.36258 60.4616 6.58701 59.4068 7.03587C58.3744 7.48473 57.5328 8.11313 56.882 8.92108C56.2311 9.70658 55.7486 10.6267 55.4344 11.6816V11.1766L55.2324 6.73289H51.058V30.197L55.4344 25.3984V18.0326C55.4454 18.0701 55.4566 18.1076 55.4681 18.1451C55.7823 19.1775 56.2648 20.1313 56.9156 21.0066C57.5665 21.8594 58.4081 22.5552 59.4405 23.0938ZM55.4344 15.1153C55.4344 13.9707 55.7149 13.0057 56.276 12.2202C56.8371 11.4122 57.6001 10.7951 58.5652 10.3686C59.5527 9.94223 60.6412 9.72902 61.8306 9.72902C63.7158 9.72902 65.1634 10.2228 66.1734 11.2103C67.2057 12.1977 67.7219 13.4994 67.7219 15.1153C67.7219 16.1926 67.475 17.1352 66.9813 17.9431C66.51 18.7287 65.8255 19.3458 64.9278 19.7947C64.0525 20.2435 63.0201 20.468 61.8306 20.468C60.5289 20.468 59.3956 20.2435 58.4305 19.7947C57.4655 19.3458 56.7249 18.7287 56.2087 17.9431C55.6925 17.1352 55.4344 16.1926 55.4344 15.1153ZM83.5655 23.8344C81.9047 23.8344 80.3898 23.4753 79.0208 22.7572C77.6742 22.0165 76.597 20.9954 75.789 19.6937C75.0035 18.3696 74.6108 16.8434 74.6108 15.1153C74.6108 13.3423 75.0147 11.805 75.8227 10.5033C76.6306 9.20161 77.7191 8.19168 79.0881 7.47351C80.4796 6.73289 82.0506 6.36258 83.8012 6.36258C85.7312 6.36258 87.2798 6.75533 88.4468 7.54083C89.6363 8.3039 90.5004 9.34749 91.039 10.6716C91.1812 11.0212 91.3047 11.3818 91.4093 11.7533V6.73289H95.7857V23.4641H91.7123L91.6113 22.8245C91.5664 22.3756 91.5215 21.8146 91.4766 21.1413C91.4318 20.468 91.4093 19.8059 91.4093 19.1551V18.0326C91.3983 18.0701 91.3871 18.1076 91.3757 18.1451C91.0615 19.1551 90.5789 20.0977 89.9281 20.9729C89.2772 21.8258 88.4244 22.5215 87.3696 23.0601C86.3148 23.5763 85.0467 23.8344 83.5655 23.8344ZM90.635 17.9095C91.1512 17.1015 91.4093 16.1702 91.4093 15.1153C91.4093 13.9707 91.14 13.0057 90.6014 12.2202C90.0852 11.4122 89.3446 10.8063 88.3795 10.4023C87.4369 9.9759 86.3035 9.76269 84.9794 9.76269C83.1166 9.76269 81.6691 10.2564 80.6367 11.2439C79.6043 12.209 79.0881 13.4994 79.0881 15.1153C79.0881 16.1926 79.335 17.1352 79.8288 17.9431C80.3225 18.7287 81.007 19.3458 81.8823 19.7947C82.78 20.2435 83.8124 20.468 84.9794 20.468C86.3035 20.468 87.4481 20.2435 88.4132 19.7947C89.3782 19.3458 90.1188 18.7174 90.635 17.9095ZM104.123 6.73289H99.7465V23.4641H104.123V14.2784C104.352 13.8057 104.666 13.3216 105.066 12.8262C105.627 12.1304 106.367 11.5469 107.287 11.0756C108.208 10.5819 109.296 10.335 110.553 10.335V6.36258C109.565 6.36258 108.701 6.54212 107.961 6.90121C107.22 7.2603 106.592 7.7316 106.075 8.31512C105.559 8.87619 105.144 9.47093 104.83 10.0993C104.516 10.7053 104.28 11.2776 104.123 11.8162V6.73289ZM139.497 6.73289H135.12V23.4641H139.497V14.2784C139.726 13.8057 140.04 13.3216 140.439 12.8262C141.001 12.1304 141.741 11.5469 142.661 11.0756C143.581 10.5819 144.67 10.335 145.927 10.335V6.36258C144.939 6.36258 144.075 6.54212 143.335 6.90121C142.594 7.2603 141.966 7.7316 141.449 8.31512C140.933 8.87619 140.518 9.47093 140.204 10.0993C139.89 10.7053 139.654 11.2776 139.497 11.8162V6.73289Z" fill="black"/>
<path d="M46.5479 9.42188L29.3567 23.8672" stroke="black" stroke-width="0.001"/>
<rect x="146.683" y="19" width="5" height="5" fill="#FF463A"/>
</svg>
