<svg width="114" height="33" viewBox="0 0 114 33" fill="none" xmlns="http://www.w3.org/2000/svg">
<path fill-rule="evenodd" clip-rule="evenodd" d="M13.1488 0.377031C13.8435 -0.396692 15.1164 0.100027 15.1164 1.14486V12.8212C15.1164 13.347 14.6946 13.7733 14.1743 13.7733C13.654 13.7733 13.2323 13.347 13.2323 12.8212V3.11768L2.83437 14.698H20.4425C21.4059 14.698 21.9278 15.8379 21.3042 16.5801L20.6316 16.0028L21.3042 16.5801L8.61895 31.6789C7.93795 32.4895 6.62674 32.0028 6.62674 30.9394V18.5414C6.62674 18.0156 7.04852 17.5893 7.56881 17.5893C8.0891 17.5893 8.51088 18.0156 8.51088 18.5414V28.8655L18.8139 16.6023H1.13271C0.151766 16.6023 -0.363675 15.4261 0.295551 14.6919L13.1488 0.377033L13.8464 1.01689L13.1488 0.377031ZM1.69126 15.9711L1.69081 15.9716L1.13271 15.4597L1.69081 15.9716C1.69096 15.9714 1.69111 15.9712 1.69126 15.9711Z" fill="#FF463A"/>
<rect x="109" y="17.0625" width="5" height="5" fill="#FF463A"/>
<path d="M32.8586 22.2807C31.7521 22.2807 30.7596 22.0854 29.881 21.6949C29.0023 21.2881 28.3027 20.743 27.782 20.0597C27.2776 19.3763 27.001 18.6197 26.9521 17.7898H30.3935C30.4586 18.3105 30.7108 18.7417 31.1501 19.0834C31.6057 19.4251 32.1671 19.5959 32.8342 19.5959C33.485 19.5959 33.9894 19.4658 34.3474 19.2054C34.7216 18.9451 34.9088 18.6115 34.9088 18.2047C34.9088 17.7654 34.681 17.44 34.2254 17.2285C33.786 17.0007 33.0782 16.7566 32.102 16.4963C31.0932 16.2522 30.2633 16 29.6125 15.7397C28.9779 15.4793 28.4247 15.0807 27.9528 14.5437C27.4972 14.0068 27.2694 13.2827 27.2694 12.3715C27.2694 11.6231 27.481 10.9397 27.904 10.3214C28.3433 9.70305 28.9616 9.21491 29.7589 8.85695C30.5725 8.49898 31.5244 8.32 32.6145 8.32C34.2254 8.32 35.5108 8.72678 36.4708 9.54034C37.4308 10.3376 37.9596 11.4197 38.0572 12.7864H34.7867C34.7379 12.2495 34.5101 11.8264 34.1033 11.5173C33.7128 11.1919 33.184 11.0292 32.5169 11.0292C31.8986 11.0292 31.4186 11.1431 31.0769 11.3708C30.7515 11.5986 30.5888 11.9159 30.5888 12.3227C30.5888 12.7783 30.8166 13.1281 31.2721 13.3722C31.7277 13.6 32.4355 13.8359 33.3955 14.08C34.3718 14.3241 35.1772 14.5763 35.8118 14.8366C36.4464 15.0969 36.9915 15.5037 37.4471 16.0569C37.9189 16.5939 38.163 17.3098 38.1793 18.2047C38.1793 18.9858 37.9596 19.6854 37.5203 20.3037C37.0972 20.922 36.4789 21.4102 35.6654 21.7681C34.8681 22.1098 33.9325 22.2807 32.8586 22.2807Z" fill="#656565"/>
<path d="M44.6452 10.4922C45.0845 9.8739 45.6865 9.36136 46.4513 8.95458C47.2323 8.53152 48.1191 8.32 49.1116 8.32C50.2669 8.32 51.3082 8.60475 52.2357 9.17424C53.1794 9.74373 53.9197 10.5573 54.4567 11.6149C55.0099 12.6563 55.2865 13.8685 55.2865 15.2515C55.2865 16.6346 55.0099 17.8631 54.4567 18.9369C53.9197 19.9946 53.1794 20.8163 52.2357 21.402C51.3082 21.9878 50.2669 22.2807 49.1116 22.2807C48.1191 22.2807 47.2404 22.0773 46.4757 21.6705C45.7272 21.2637 45.117 20.7512 44.6452 20.1329V28.5044H41.2282V8.53966H44.6452V10.4922ZM51.7963 15.2515C51.7963 14.438 51.6255 13.7383 51.2838 13.1525C50.9584 12.5505 50.5191 12.0949 49.9658 11.7858C49.4289 11.4766 48.8431 11.322 48.2085 11.322C47.5902 11.322 47.0045 11.4847 46.4513 11.8102C45.9143 12.1193 45.475 12.5749 45.1333 13.1769C44.8079 13.779 44.6452 14.4868 44.6452 15.3003C44.6452 16.1139 44.8079 16.8217 45.1333 17.4237C45.475 18.0258 45.9143 18.4895 46.4513 18.8149C47.0045 19.1241 47.5902 19.2786 48.2085 19.2786C48.8431 19.2786 49.4289 19.1159 49.9658 18.7905C50.5191 18.4651 50.9584 18.0014 51.2838 17.3993C51.6255 16.7973 51.7963 16.0814 51.7963 15.2515Z" fill="#656565"/>
<path d="M57.1349 15.2515C57.1349 13.8847 57.4034 12.6725 57.9404 11.6149C58.4936 10.5573 59.2339 9.74373 60.1614 9.17424C61.1051 8.60475 62.1546 8.32 63.3099 8.32C64.3187 8.32 65.1973 8.52339 65.9458 8.93017C66.7105 9.33695 67.3207 9.84949 67.7763 10.4678V8.53966H71.2177V22.061H67.7763V20.0841C67.337 20.7186 66.7268 21.2475 65.9458 21.6705C65.181 22.0773 64.2943 22.2807 63.2855 22.2807C62.1465 22.2807 61.1051 21.9878 60.1614 21.402C59.2339 20.8163 58.4936 19.9946 57.9404 18.9369C57.4034 17.8631 57.1349 16.6346 57.1349 15.2515ZM67.7763 15.3003C67.7763 14.4705 67.6136 13.7627 67.2882 13.1769C66.9627 12.5749 66.5234 12.1193 65.9702 11.8102C65.417 11.4847 64.8231 11.322 64.1885 11.322C63.5539 11.322 62.9682 11.4766 62.4312 11.7858C61.8943 12.0949 61.4549 12.5505 61.1133 13.1525C60.7878 13.7383 60.6251 14.438 60.6251 15.2515C60.6251 16.0651 60.7878 16.781 61.1133 17.3993C61.4549 18.0014 61.8943 18.4651 62.4312 18.7905C62.9844 19.1159 63.5702 19.2786 64.1885 19.2786C64.8231 19.2786 65.417 19.1241 65.9702 18.8149C66.5234 18.4895 66.9627 18.0339 67.2882 17.4481C67.6136 16.8461 67.7763 16.1302 67.7763 15.3003Z" fill="#656565"/>
<path d="M78.2159 10.6386C78.6552 9.92271 79.2247 9.36136 79.9244 8.95458C80.6403 8.5478 81.4539 8.34441 82.3651 8.34441V11.9322H81.462C80.3881 11.9322 79.5746 12.1844 79.0213 12.6888C78.4844 13.1932 78.2159 14.0719 78.2159 15.3247V22.061H74.799V8.53966H78.2159V10.6386Z" fill="#656565"/>
<path d="M92.916 22.061L88.3276 16.301V22.061H84.9106V4H88.3276V14.2753L92.8672 8.53966H97.3093L91.354 15.3247L97.3581 22.061H92.916Z" fill="#656565"/>
<path d="M102.825 10.6386C103.264 9.92271 103.834 9.36136 104.533 8.95458C105.249 8.5478 106.063 8.34441 106.974 8.34441V11.9322H106.071C104.997 11.9322 104.183 12.1844 103.63 12.6888C103.093 13.1932 102.825 14.0719 102.825 15.3247V22.061H99.4079V8.53966H102.825V10.6386Z" fill="#656565"/>
</svg>
