<svg width="114" height="33" viewBox="0 0 114 33" fill="none" xmlns="http://www.w3.org/2000/svg">
<path fill-rule="evenodd" clip-rule="evenodd" d="M13.1488 0.374101C13.8435 -0.399622 15.1164 0.0970978 15.1164 1.14193V12.8182C15.1164 13.3441 14.6946 13.7704 14.1743 13.7704C13.654 13.7704 13.2323 13.3441 13.2323 12.8182V3.11475L2.83437 14.6951H20.4425C21.4059 14.6951 21.9278 15.835 21.3042 16.5772L20.6316 15.9999L21.3042 16.5772L8.61895 31.676C7.93795 32.4865 6.62674 31.9998 6.62674 30.9364V18.5385C6.62674 18.0126 7.04852 17.5863 7.56881 17.5863C8.0891 17.5863 8.51088 18.0126 8.51088 18.5385V28.8626L18.8139 16.5993H1.13271C0.151766 16.5993 -0.363675 15.4231 0.295551 14.6889L13.1488 0.374103L13.8464 1.01396L13.1488 0.374101ZM1.69126 15.9682L1.69081 15.9687L1.13271 15.4568L1.69081 15.9687C1.69096 15.9685 1.69111 15.9683 1.69126 15.9682Z" fill="#FF463A"/>
<rect x="109" y="17.0596" width="5" height="5" fill="#FF463A"/>
<path d="M32.8586 22.2777C31.7521 22.2777 30.7596 22.0825 29.881 21.692C29.0023 21.2852 28.3027 20.7401 27.782 20.0567C27.2776 19.3733 27.001 18.6167 26.9521 17.7869H30.3935C30.4586 18.3076 30.7108 18.7388 31.1501 19.0805C31.6057 19.4222 32.1671 19.593 32.8342 19.593C33.485 19.593 33.9894 19.4628 34.3474 19.2025C34.7216 18.9422 34.9088 18.6086 34.9088 18.2018C34.9088 17.7625 34.681 17.4371 34.2254 17.2255C33.786 16.9977 33.0782 16.7537 32.102 16.4933C31.0932 16.2493 30.2633 15.9971 29.6125 15.7367C28.9779 15.4764 28.4247 15.0777 27.9528 14.5408C27.4972 14.0038 27.2694 13.2798 27.2694 12.3686C27.2694 11.6201 27.481 10.9367 27.904 10.3184C28.3433 9.70012 28.9616 9.21198 29.7589 8.85402C30.5725 8.49605 31.5244 8.31707 32.6145 8.31707C34.2254 8.31707 35.5108 8.72385 36.4708 9.53741C37.4308 10.3347 37.9596 11.4167 38.0572 12.7835H34.7867C34.7379 12.2466 34.5101 11.8235 34.1033 11.5144C33.7128 11.1889 33.184 11.0262 32.5169 11.0262C31.8986 11.0262 31.4186 11.1401 31.0769 11.3679C30.7515 11.5957 30.5888 11.913 30.5888 12.3198C30.5888 12.7754 30.8166 13.1252 31.2721 13.3693C31.7277 13.5971 32.4355 13.833 33.3955 14.0771C34.3718 14.3211 35.1772 14.5733 35.8118 14.8337C36.4464 15.094 36.9915 15.5008 37.4471 16.054C37.9189 16.591 38.163 17.3069 38.1793 18.2018C38.1793 18.9828 37.9596 19.6825 37.5203 20.3008C37.0972 20.9191 36.4789 21.4072 35.6654 21.7652C34.8681 22.1069 33.9325 22.2777 32.8586 22.2777Z" fill="#D1D1D1"/>
<path d="M44.6452 10.4893C45.0845 9.87097 45.6865 9.35843 46.4513 8.95165C47.2323 8.52859 48.1191 8.31707 49.1116 8.31707C50.2669 8.31707 51.3082 8.60182 52.2357 9.17131C53.1794 9.7408 53.9197 10.5544 54.4567 11.612C55.0099 12.6533 55.2865 13.8655 55.2865 15.2486C55.2865 16.6316 55.0099 17.8601 54.4567 18.934C53.9197 19.9916 53.1794 20.8133 52.2357 21.3991C51.3082 21.9849 50.2669 22.2777 49.1116 22.2777C48.1191 22.2777 47.2404 22.0744 46.4757 21.6676C45.7272 21.2608 45.117 20.7483 44.6452 20.13V28.5015H41.2282V8.53673H44.6452V10.4893ZM51.7963 15.2486C51.7963 14.435 51.6255 13.7354 51.2838 13.1496C50.9584 12.5476 50.5191 12.092 49.9658 11.7828C49.4289 11.4737 48.8431 11.3191 48.2085 11.3191C47.5902 11.3191 47.0045 11.4818 46.4513 11.8072C45.9143 12.1164 45.475 12.572 45.1333 13.174C44.8079 13.7761 44.6452 14.4838 44.6452 15.2974C44.6452 16.111 44.8079 16.8188 45.1333 17.4208C45.475 18.0228 45.9143 18.4866 46.4513 18.812C47.0045 19.1211 47.5902 19.2757 48.2085 19.2757C48.8431 19.2757 49.4289 19.113 49.9658 18.7876C50.5191 18.4622 50.9584 17.9984 51.2838 17.3964C51.6255 16.7944 51.7963 16.0784 51.7963 15.2486Z" fill="#D1D1D1"/>
<path d="M57.1349 15.2486C57.1349 13.8818 57.4034 12.6696 57.9404 11.612C58.4936 10.5544 59.2339 9.7408 60.1614 9.17131C61.1051 8.60182 62.1546 8.31707 63.3099 8.31707C64.3187 8.31707 65.1973 8.52046 65.9458 8.92724C66.7105 9.33402 67.3207 9.84656 67.7763 10.4649V8.53673H71.2177V22.0581H67.7763V20.0811C67.337 20.7157 66.7268 21.2445 65.9458 21.6676C65.181 22.0744 64.2943 22.2777 63.2855 22.2777C62.1465 22.2777 61.1051 21.9849 60.1614 21.3991C59.2339 20.8133 58.4936 19.9916 57.9404 18.934C57.4034 17.8601 57.1349 16.6316 57.1349 15.2486ZM67.7763 15.2974C67.7763 14.4676 67.6136 13.7598 67.2882 13.174C66.9627 12.572 66.5234 12.1164 65.9702 11.8072C65.417 11.4818 64.8231 11.3191 64.1885 11.3191C63.5539 11.3191 62.9682 11.4737 62.4312 11.7828C61.8943 12.092 61.4549 12.5476 61.1133 13.1496C60.7878 13.7354 60.6251 14.435 60.6251 15.2486C60.6251 16.0622 60.7878 16.7781 61.1133 17.3964C61.4549 17.9984 61.8943 18.4622 62.4312 18.7876C62.9844 19.113 63.5702 19.2757 64.1885 19.2757C64.8231 19.2757 65.417 19.1211 65.9702 18.812C66.5234 18.4866 66.9627 18.031 67.2882 17.4452C67.6136 16.8432 67.7763 16.1272 67.7763 15.2974Z" fill="#D1D1D1"/>
<path d="M78.2159 10.6357C78.6552 9.91978 79.2247 9.35843 79.9244 8.95165C80.6403 8.54487 81.4539 8.34148 82.3651 8.34148V11.9293H81.462C80.3881 11.9293 79.5746 12.1815 79.0213 12.6859C78.4844 13.1903 78.2159 14.0689 78.2159 15.3218V22.0581H74.799V8.53673H78.2159V10.6357Z" fill="#D1D1D1"/>
<path d="M92.916 22.0581L88.3276 16.2981V22.0581H84.9106V3.99707H88.3276V14.2723L92.8672 8.53673H97.3093L91.354 15.3218L97.3581 22.0581H92.916Z" fill="#D1D1D1"/>
<path d="M102.825 10.6357C103.264 9.91978 103.834 9.35843 104.533 8.95165C105.249 8.54487 106.063 8.34148 106.974 8.34148V11.9293H106.071C104.997 11.9293 104.183 12.1815 103.63 12.6859C103.093 13.1903 102.825 14.0689 102.825 15.3218V22.0581H99.4079V8.53673H102.825V10.6357Z" fill="#D1D1D1"/>
</svg>
