<svg width="152" height="33" viewBox="0 0 152 33" fill="none" xmlns="http://www.w3.org/2000/svg">
<path d="M15.9064 2.60122C15.9077 2.49287 15.8763 2.38664 15.8165 2.29632C15.7566 2.20601 15.6709 2.13579 15.5706 2.0948C15.4703 2.05381 15.36 2.04396 15.254 2.06651C15.148 2.08906 15.0512 2.14297 14.9763 2.22123L1.15633 15.7812C1.08155 15.8567 1.03072 15.9526 1.01018 16.0569C0.989648 16.1612 1.00031 16.2692 1.04088 16.3674C1.08145 16.4656 1.15011 16.5497 1.23824 16.6091C1.32637 16.6685 1.43007 16.7005 1.53634 16.7012H15.9064V2.60122Z" stroke="#FF463A" stroke-width="1.95" stroke-miterlimit="10"/>
<path d="M22.1465 16.6953H8.04642V31.0553C8.04516 31.1624 8.07582 31.2675 8.13444 31.3572C8.19306 31.4468 8.27702 31.517 8.37565 31.5589C8.47428 31.6007 8.58313 31.6122 8.68833 31.592C8.79353 31.5718 8.89036 31.5207 8.96647 31.4453L22.5265 17.6153C22.6013 17.5398 22.652 17.4439 22.6726 17.3396C22.6931 17.2354 22.6825 17.1274 22.6419 17.0291C22.6013 16.9309 22.5327 16.8469 22.4446 16.7875C22.3564 16.7281 22.2527 16.696 22.1465 16.6953Z" stroke="#FF463A" stroke-width="1.95" stroke-miterlimit="10"/>
<path fill-rule="evenodd" clip-rule="evenodd" d="M113.561 5.5L117.938 0.601562V24.0657H113.561V5.5ZM132.043 7.33445L123.563 14.8116L132.817 24.0657H127.263L118.039 14.6733L126.084 7.33445H132.043ZM35.713 19.1592C35.9943 19.6377 36.4024 20.0501 36.9374 20.3963C37.7229 20.8676 38.744 21.1032 40.0008 21.1032C40.8537 21.1032 41.5157 21.0247 41.987 20.8676C42.4583 20.7105 42.7838 20.486 42.9633 20.1943C43.1428 19.8801 43.2326 19.5322 43.2326 19.1507C43.2326 18.6794 43.0867 18.3203 42.795 18.0734C42.5032 17.8041 42.0544 17.5909 41.4484 17.4338C40.8424 17.2767 40.0682 17.1308 39.1255 16.9961C38.1829 16.839 37.274 16.6483 36.3987 16.4238C35.5235 16.1994 34.7492 15.9077 34.0759 15.5486C33.4026 15.167 32.864 14.6957 32.46 14.1347C32.0785 13.5512 31.8877 12.8442 31.8877 12.0138C31.8877 11.2059 32.0785 10.4877 32.46 9.85928C32.864 9.23088 33.4138 8.70347 34.1095 8.27706C34.8277 7.85064 35.6581 7.52522 36.6007 7.30079C37.5658 7.07636 38.5981 6.96414 39.6978 6.96414C41.3586 6.96414 42.7389 7.21101 43.8386 7.70476C44.9383 8.17606 45.9615 9.12472 46.5002 10L43.5422 12.5338C43.3199 11.6978 42.7276 11.262 42.189 10.9029C41.6504 10.5214 40.82 10.3306 39.6978 10.3306C38.5981 10.3306 37.7678 10.4989 37.2067 10.8356C36.6456 11.1722 36.3651 11.6323 36.3651 12.2158C36.3651 12.6871 36.5334 13.0574 36.87 13.3267C37.2291 13.5736 37.7453 13.7756 38.4186 13.9327C39.1143 14.0898 39.9784 14.2581 41.0108 14.4376C41.886 14.6172 42.7164 14.8192 43.5019 15.0436C44.3099 15.268 45.028 15.5598 45.6565 15.9189C46.2849 16.2555 46.7786 16.7156 47.1377 17.2991C47.5192 17.8602 47.71 18.5784 47.71 19.4536C47.71 20.5309 47.3958 21.4398 46.7674 22.1805C46.1614 22.9211 45.2861 23.4934 44.1416 23.8974C42.997 24.2789 41.6279 24.4696 40.0345 24.4696C38.6206 24.4696 37.3974 24.3238 36.3651 24.032C35.3551 23.7178 34.5135 23.3251 33.8402 22.8538C33.37 22.5089 32.971 22.1532 32.6431 21.7865L35.713 19.1592ZM59.4405 23.6954C60.4953 24.2116 61.7633 24.4696 63.2445 24.4696C64.9053 24.4696 66.409 24.1106 67.7556 23.3924C69.1022 22.6742 70.1794 21.6643 70.9874 20.3626C71.7953 19.0385 72.1993 17.4899 72.1993 15.7169C72.1993 13.9888 71.7953 12.4739 70.9874 11.1722C70.2019 9.84806 69.1358 8.81569 67.7892 8.07507C66.4427 7.33445 64.9278 6.96414 63.2445 6.96414C61.7409 6.96414 60.4616 7.18857 59.4068 7.63743C58.3744 8.08629 57.5328 8.71469 56.882 9.52264C56.2311 10.3081 55.7486 11.2283 55.4344 12.2831V11.7782L55.2324 7.33445H51.058V30.7986L55.4344 26V18.6341C55.4454 18.6716 55.4566 18.7091 55.4681 18.7467C55.7823 19.7791 56.2648 20.7329 56.9156 21.6082C57.5665 22.461 58.4081 23.1567 59.4405 23.6954ZM55.4344 15.7169C55.4344 14.5723 55.7149 13.6073 56.276 12.8218C56.8371 12.0138 57.6001 11.3966 58.5652 10.9702C59.5527 10.5438 60.6412 10.3306 61.8306 10.3306C63.7158 10.3306 65.1634 10.8243 66.1734 11.8118C67.2057 12.7993 67.7219 14.101 67.7219 15.7169C67.7219 16.7942 67.475 17.7368 66.9813 18.5447C66.51 19.3302 65.8255 19.9474 64.9278 20.3963C64.0525 20.8451 63.0201 21.0695 61.8306 21.0695C60.5289 21.0695 59.3956 20.8451 58.4305 20.3963C57.4655 19.9474 56.7249 19.3302 56.2087 18.5447C55.6925 17.7368 55.4344 16.7942 55.4344 15.7169ZM83.5655 24.436C81.9047 24.436 80.3898 24.0769 79.0208 23.3587C77.6742 22.6181 76.597 21.597 75.789 20.2953C75.0035 18.9711 74.6108 17.445 74.6108 15.7169C74.6108 13.9439 75.0147 12.4066 75.8227 11.1049C76.6306 9.80318 77.7191 8.79324 79.0881 8.07507C80.4796 7.33445 82.0506 6.96414 83.8012 6.96414C85.7312 6.96414 87.2798 7.35689 88.4468 8.1424C89.6363 8.90546 90.5004 9.94905 91.039 11.2732C91.1812 11.6228 91.3047 11.9833 91.4093 12.3548V7.33445H95.7857V24.0657H91.7123L91.6113 23.4261C91.5664 22.9772 91.5215 22.4161 91.4766 21.7428C91.4318 21.0695 91.4093 20.4075 91.4093 19.7566V18.6341C91.3983 18.6716 91.3871 18.7091 91.3757 18.7467C91.0615 19.7566 90.5789 20.6992 89.9281 21.5745C89.2772 22.4273 88.4244 23.1231 87.3696 23.6617C86.3148 24.1779 85.0467 24.436 83.5655 24.436ZM90.635 18.511C91.1512 17.7031 91.4093 16.7717 91.4093 15.7169C91.4093 14.5723 91.14 13.6073 90.6014 12.8218C90.0852 12.0138 89.3446 11.4078 88.3795 11.0039C87.4369 10.5775 86.3035 10.3643 84.9794 10.3643C83.1166 10.3643 81.6691 10.858 80.6367 11.8455C79.6043 12.8105 79.0881 14.101 79.0881 15.7169C79.0881 16.7942 79.335 17.7368 79.8288 18.5447C80.3225 19.3302 81.007 19.9474 81.8823 20.3963C82.78 20.8451 83.8124 21.0695 84.9794 21.0695C86.3035 21.0695 87.4481 20.8451 88.4132 20.3963C89.3782 19.9474 90.1188 19.319 90.635 18.511ZM104.123 7.33445H99.7465V24.0657H104.123V14.88C104.352 14.4073 104.666 13.9232 105.066 13.4277C105.627 12.732 106.367 12.1485 107.287 11.6772C108.208 11.1834 109.296 10.9365 110.553 10.9365V6.96414C109.565 6.96414 108.701 7.14369 107.961 7.50277C107.22 7.86186 106.592 8.33316 106.075 8.91668C105.559 9.47775 105.144 10.0725 104.83 10.7009C104.516 11.3069 104.28 11.8792 104.123 12.4178V7.33445ZM139.497 7.33445H135.12V24.0657H139.497V14.88C139.726 14.4073 140.04 13.9232 140.439 13.4277C141.001 12.732 141.741 12.1485 142.661 11.6772C143.581 11.1834 144.67 10.9365 145.927 10.9365V6.96414C144.939 6.96414 144.075 7.14369 143.335 7.50277C142.594 7.86186 141.966 8.33316 141.449 8.91668C140.933 9.47775 140.518 10.0725 140.204 10.7009C139.89 11.3069 139.654 11.8792 139.497 12.4178V7.33445Z" fill="white"/>
<path d="M46.5479 10.0234L29.3567 24.4688" stroke="black" stroke-width="0.001"/>
<rect x="146.683" y="19.6016" width="5" height="5" fill="#FF463A"/>
</svg>
