<svg width="22" height="33" viewBox="0 0 22 33" fill="none" xmlns="http://www.w3.org/2000/svg">
<path fill-rule="evenodd" clip-rule="evenodd" d="M13.1488 0.374101C13.8435 -0.399622 15.1164 0.0970978 15.1164 1.14193V12.8182C15.1164 13.3441 14.6946 13.7704 14.1743 13.7704C13.654 13.7704 13.2323 13.3441 13.2323 12.8182V3.11475L2.83437 14.6951H20.4425C21.4059 14.6951 21.9278 15.835 21.3042 16.5772L20.6316 15.9999L21.3042 16.5772L8.61895 31.676C7.93795 32.4865 6.62674 31.9998 6.62674 30.9364V18.5385C6.62674 18.0126 7.04852 17.5863 7.56881 17.5863C8.0891 17.5863 8.51088 18.0126 8.51088 18.5385V28.8626L18.8139 16.5993H1.13271C0.151766 16.5993 -0.363675 15.4231 0.295551 14.6889L13.1488 0.374103L13.8464 1.01396L13.1488 0.374101ZM1.69126 15.9682L1.69081 15.9687L1.13271 15.4568L1.69081 15.9687C1.69096 15.9685 1.69111 15.9683 1.69126 15.9682Z" fill="#FF463A"/>
</svg>
