<svg width="48" height="48" viewBox="0 0 48 48" fill="none" xmlns="http://www.w3.org/2000/svg">
<rect width="48" height="48" rx="4" fill="#FFF7F7"/>
<path fill-rule="evenodd" clip-rule="evenodd" d="M26.8454 4.47005C27.6826 3.50544 29.2166 4.12471 29.2166 5.42732V19.9844C29.2166 20.64 28.7083 21.1714 28.0813 21.1714C27.4543 21.1714 26.9461 20.64 26.9461 19.9844V7.88687L14.4157 22.3243H35.635C36.796 22.3243 37.4249 23.7454 36.6735 24.6707L35.8629 23.951L36.6735 24.6707L21.3866 43.4947C20.5659 44.5052 18.9858 43.8985 18.9858 42.5727V27.1159C18.9858 26.4604 19.4941 25.9289 20.1211 25.9289C20.7481 25.9289 21.2564 26.4604 21.2564 27.1159V39.9872L33.6724 24.6984H12.365C11.1829 24.6984 10.5617 23.232 11.3562 22.3166L26.8454 4.47005L27.6861 5.26778L26.8454 4.47005ZM13.0381 23.9115L13.0376 23.9121L12.365 23.2739L13.0376 23.9121C13.0378 23.9119 13.0379 23.9117 13.0381 23.9115Z" fill="#FF463A"/>
</svg>
